<?xml version="1.0" encoding="utf-8"?>
<!-- Generator: Adobe Illustrator 22.0.1, SVG Export Plug-In . SVG Version: 6.00 Build 0)  -->
<svg version="1.1" id="Layer_1" xmlns="http://www.w3.org/2000/svg" xmlns:xlink="http://www.w3.org/1999/xlink" x="0px" y="0px"
	 viewBox="0 0 600 600" enable-background="new 0 0 600 600" xml:space="preserve">
<g>
	<circle fill="#F79B94" cx="47.3" cy="105.3" r="4.5"/>
	<circle fill="#F79B94" cx="4.5" cy="305.2" r="4.5"/>
	<circle fill="#F79B94" cx="576.2" cy="428" r="10.2"/>
	<g>
		<path fill="#B4EFEF" d="M545.5,325.5c8.6,0,15.6-4.5,15.6-10.1s-7-10.1-15.6-10.1c-8.6,0-15.6-4.4-15.6-9.9s3.1-9.9,7-9.9
			c3.8,0,7-4.5,7-10.1c0-5.6,0-14.6,0-20.1c0-5.5-5.8-10-12.9-10c-7.1,0-12.9-4.4-12.9-9.9c0-5.4,0-9.9,0-10s0-4.6,0-10
			c0-5.4,4.2-9.9,9.3-9.9c5.1,0,9.3-4.5,9.3-10c0-5.5,0-10,0-10.1s0-4.6,0-10.1s-12.1-10-27-10c-14.8,0-27-4.5-27-10
			c0-5.5-4.6-10-10.3-10c-5.6,0-10.3-4.4-10.3-9.9s0-9.9,0-10c0-0.1,0-4.6,0-10.1s-9.2-10-20.4-10s-20.4-4.5-20.4-10
			c0-5.5-8.1-10-18.1-10c-10,0-18.1-4.5-18.1-10c0-5.5-6.4-10-14.3-10s-14.3-5.1-14.3-11.4s-4.9-11.4-11-11.4s-24.5,0-41,0h-5.3
			c-16.5,0-34.9,0-41,0s-11,5.1-11,11.4s-5.1,11.4-11.4,11.4s-11.4,4.5-11.4,10c0,5.5-9,10-20,10c-11,0-20,4.5-20,10
			c0,5.5-8.4,10-18.6,10s-18.6,4.5-18.6,10.1s0.4,10.1,1,10.1s1,4.4,1,9.9s-6.5,9.9-14.4,9.9c-7.9,0-14.4,4.5-14.4,10
			c0,5.5-11.1,10-24.7,10s-24.7,4.5-24.7,10s5.5,10,12.3,10.1c6.8,0.1,12.3,4.6,12.3,10s-8.5,9.9-18.9,9.9S58,210,58,215.5
			c0,5.5-10,10-22.1,10s-22.1,4.5-22.1,10.1s9.2,10.1,20.5,10.1s20.5,4.4,20.5,9.9s-6.4,9.9-14.2,9.9s-14.2,4.5-14.2,10.1
			c0,5.6,11.5,10.1,25.5,10.1s25.5,4.4,25.5,9.9s-7.2,9.9-16,9.9s-16,4.5-16,10.1s3.9,10.1,8.7,10.1s8.7,4.5,8.7,10s0,10,0,10
			s0,4.4,0,9.9s-4.3,9.9-9.6,9.9s-9.6,4.5-9.6,10.1c0,5.6,5,10.1,11.1,10.1s11.1,4.5,11.1,10s13.1,10,29.1,10s29.1,4.5,29.1,10
			s-4.9,10-10.9,10s-10.9,4.4-10.9,9.9c0,5.4-5.7,9.9-12.7,9.9S77,449.5,77,455.1c0,5.6,7.5,10.1,16.6,10.1s16.6,4.5,16.6,10
			s7.8,10,17.3,10s17.3,4.5,17.3,10c0,5.5,7.4,10,16.4,10c9,0,16.4,4.5,16.4,10s6.2,10,13.7,10s15.5,0,17.7,0s4,3.9,4,8.6
			c0,4.7,6.4,8.6,14.3,8.6c7.8,0,14.3,5.1,14.3,11.4s4.9,11.4,11,11.4s24.5,0,41,0h5.3c16.5,0,34.9,0,41,0s11-5.1,11-11.4
			s5.1-11.4,11.4-11.4s11.4-3.9,11.4-8.6c0-4.7,2.6-8.6,5.8-8.6c3.2,0,13.2,0,22.3,0c9.1,0,16.6-4.5,16.6-10s10.2-10,22.7-10
			c12.5,0,22.7-4.5,22.7-10c0-5.5,6.3-10,14.1-10c7.7,0,14.1-4.5,14.1-10s0-14.5,0-20s4.1-10,9.1-10c5,0,9.1-4.5,9.1-10
			c0-5.5,0-10,0-10.1c0-0.1,0-4.6,0-10c0-5.4,5.5-9.9,12.1-9.9c6.7,0,12.1-4.5,12.1-10s0-10,0-10.1c0-0.1,0-4.6,0-10
			c0-5.4,3.4-9.9,7.7-9.9c4.2,0,7.7-4.5,7.7-10.1c0-5.6-4.4-10.1-9.7-10.1s-9.7-4.4-9.7-9.9C529.9,329.9,536.9,325.5,545.5,325.5z"
			/>
	</g>
	<path fill="#F79B94" d="M106.2,526.2H84.8c-2.9,0-5.3-2.4-5.3-5.3l0,0c0-2.9,2.4-5.3,5.3-5.3h21.5c2.9,0,5.3,2.4,5.3,5.3l0,0
		C111.5,523.8,109.1,526.2,106.2,526.2z"/>
	<path fill="#89C6C4" d="M56.6,459.4H35.2c-2.9,0-5.3-2.4-5.3-5.3v0c0-2.9,2.4-5.3,5.3-5.3h21.5c2.9,0,5.3,2.4,5.3,5.3v0
		C61.9,457,59.5,459.4,56.6,459.4z"/>
	<path fill="#89C6C4" d="M31.3,387.1H9.8c-2.9,0-5.3-2.4-5.3-5.3l0,0c0-2.9,2.4-5.3,5.3-5.3h21.5c2.9,0,5.3,2.4,5.3,5.3l0,0
		C36.6,384.7,34.2,387.1,31.3,387.1z"/>
	<path fill="#89C6C4" d="M47.3,190.6H25.8c-2.9,0-5.3-2.4-5.3-5.3v0c0-2.9,2.4-5.3,5.3-5.3h21.5c2.9,0,5.3,2.4,5.3,5.3v0
		C52.6,188.2,50.2,190.6,47.3,190.6z"/>
	<path fill="#F79B94" d="M146.7,68.6h-21.5c-2.9,0-5.3-2.4-5.3-5.3v0c0-2.9,2.4-5.3,5.3-5.3h21.5c2.9,0,5.3,2.4,5.3,5.3v0
		C152,66.2,149.7,68.6,146.7,68.6z"/>
	<path fill="#AFDDDD" d="M225.2,63.3h-21.5c-2.9,0-5.3-2.4-5.3-5.3v0c0-2.9,2.4-5.3,5.3-5.3h21.5c2.9,0,5.3,2.4,5.3,5.3v0
		C230.5,61,228.1,63.3,225.2,63.3z"/>
	<path fill="#AFDDDD" d="M406.7,45.5h-21.5c-2.9,0-5.3-2.4-5.3-5.3v0c0-2.9,2.4-5.3,5.3-5.3h21.5c2.9,0,5.3,2.4,5.3,5.3v0
		C412,43.2,409.6,45.5,406.7,45.5z"/>
	<path fill="#F79B94" d="M477.3,58.9h-21.5c-2.9,0-5.3-2.4-5.3-5.3v0c0-2.9,2.4-5.3,5.3-5.3h21.5c2.9,0,5.3,2.4,5.3,5.3v0
		C482.6,56.5,480.3,58.9,477.3,58.9z"/>
	<path fill="#AFDDDD" d="M502.8,96.4h-21.5c-2.9,0-5.3-2.4-5.3-5.3v0c0-2.9,2.4-5.3,5.3-5.3h21.5c2.9,0,5.3,2.4,5.3,5.3v0
		C508.1,94.1,505.7,96.4,502.8,96.4z"/>
	<path fill="#AFDDDD" d="M576.6,199.1h-21.5c-2.9,0-5.3-2.4-5.3-5.3v0c0-2.9,2.4-5.3,5.3-5.3h21.5c2.9,0,5.3,2.4,5.3,5.3v0
		C581.9,196.8,579.6,199.1,576.6,199.1z"/>
	<path fill="#AFDDDD" d="M594.7,329.3h-21.5c-2.9,0-5.3-2.4-5.3-5.3v0c0-2.9,2.4-5.3,5.3-5.3h21.5c2.9,0,5.3,2.4,5.3,5.3v0
		C600,327,597.6,329.3,594.7,329.3z"/>
	<path fill="#89C6C4" d="M534.5,487.2H513c-2.9,0-5.3-2.4-5.3-5.3l0,0c0-2.9,2.4-5.3,5.3-5.3h21.5c2.9,0,5.3,2.4,5.3,5.3l0,0
		C539.8,484.8,537.4,487.2,534.5,487.2z"/>
	<path fill="#F79B94" d="M576.6,119h-54.5c-2.9,0-5.3-2.4-5.3-5.3v0c0-2.9,2.4-5.3,5.3-5.3h54.5c2.9,0,5.3,2.4,5.3,5.3v0
		C581.9,116.7,579.6,119,576.6,119z"/>
	<g>
		<g>
			<g>
				<circle fill="#86C4C2" cx="287.2" cy="416" r="31.2"/>
			</g>
			<path fill="#86C4C2" d="M296.9,371.8L296.9,371.8c-16.7-3.6-27.3-20.2-23.7-36.9L301.4,182c6.8-31,27-35.2,43.7-31.6l0,0
				c16.7,3.6,34,19.3,26.3,47.9l-37.6,149.7C330.2,364.7,313.5,375.4,296.9,371.8z"/>
		</g>
		<g>
			<g>
				<circle fill="#F79B94" cx="271.7" cy="403.3" r="31.2"/>
			</g>
			<path fill="#F79B94" d="M281.3,359.1L281.3,359.1c-16.7-3.6-27.3-20.2-23.7-36.9l28.2-152.8c6.8-31,27-35.2,43.7-31.6l0,0
				c16.7,3.6,34,19.3,26.3,47.9l-37.6,149.7C314.6,352,298,362.7,281.3,359.1z"/>
		</g>
	</g>
</g>
</svg>
