<?xml version="1.0" encoding="utf-8"?>
<!-- Generator: Adobe Illustrator 22.0.1, SVG Export Plug-In . SVG Version: 6.00 Build 0)  -->
<svg version="1.1" id="Layer_1" xmlns="http://www.w3.org/2000/svg" xmlns:xlink="http://www.w3.org/1999/xlink" x="0px" y="0px"
	 viewBox="0 0 600 547.1" style="enable-background:new 0 0 600 547.1;" xml:space="preserve">
<style type="text/css">
	.st0{fill:#B4EFEF;}
	.st1{fill:#AFDDDD;}
	.st2{fill:#7DE9EF;}
	.st3{fill:#F79B94;}
	.st4{fill:#86C4C2;}
</style>
<g>
	<g>
		<path class="st0" d="M555.3,303.6c8.8,0,15.9-4.6,15.9-10.3s-7.2-10.3-15.9-10.3s-15.9-4.5-15.9-10s3.2-10,7.1-10
			c3.9,0,7.1-4.6,7.1-10.3c0-5.7,0-14.9,0-20.4c0-5.6-5.9-10.1-13.1-10.1c-7.2,0-13.1-4.5-13.1-10c0-5.5,0-10.1,0-10.1s0-4.6,0-10.1
			c0-5.5,4.3-10,9.4-10c5.2,0,9.4-4.6,9.4-10.1c0-5.5,0-10.2,0-10.3c0-0.1,0-4.7,0-10.3c0-5.6-11.3-10.1-25.1-10.1h-4.8
			c-13.8,0-25.1-4.6-25.1-10.1c0-5.5-4.7-10.1-10.5-10.1c-5.8,0-10.5-4.5-10.5-10s0-10.1,0-10.1c0-0.1,0-4.7,0-10.3
			s-9.4-10.1-20.8-10.1c-11.5,0-20.8-4.6-20.8-10.1s-8.3-10.1-18.4-10.1S392,55.5,392,50s-6.5-10.1-14.5-10.1
			c-8,0-14.5-5.3-14.5-11.6s-5-11.6-11.1-11.6s-22.4,0-36.2,0h-16.3c-13.8,0-30.1,0-36.2,0c-6.1,0-11.1,5.3-11.1,11.6
			s-5.3,11.6-11.6,11.6c-6.4,0-11.6,4.6-11.6,10.1s-9.1,10.1-20.3,10.1c-11.2,0-20.3,4.6-20.3,10.1s-8.5,10.1-19,10.1
			c-10.5,0-19,4.6-19,10.3s0.4,10.3,1,10.3s1,4.5,1,10c0,5.5-6.6,10-14.7,10s-14.7,4.6-14.7,10.1c0,5.5-11.3,10.1-25.1,10.1h-0.1
			c-13.8,0-25.1,4.6-25.1,10.1c0,5.5,5.7,10.2,12.5,10.3c6.9,0.1,12.5,4.6,12.5,10.1s-8.7,10-19.2,10s-19.2,4.6-19.2,10.1
			c0,5.5-10.1,10.1-22.5,10.1s-22.5,4.6-22.5,10.3c0,5.7,9.4,10.3,20.9,10.3s20.9,4.5,20.9,10c0,5.5-6.5,10-14.4,10
			s-14.4,4.6-14.4,10.3s11.3,10.3,25.1,10.3h1.7c13.8,0,25.1,4.5,25.1,10s-7.4,10-16.3,10s-16.3,4.6-16.3,10.3s3.9,10.3,8.9,10.3
			s8.9,4.6,8.9,10.1c0,5.6,0,10.1,0,10.1s0,4.5,0,10s-4.4,10-9.8,10s-9.8,4.6-9.8,10.3s5.1,10.3,11.4,10.3c6.3,0,11.4,4.6,11.4,10.1
			s11.3,10.1,25.1,10.1h9.2c13.8,0,25.1,4.6,25.1,10.1c0,5.6-5,10.1-11.1,10.1s-11.1,4.5-11.1,10s-5.8,10-12.9,10
			s-12.9,4.6-12.9,10.3c0,5.7,7.6,10.3,16.9,10.3s16.9,4.6,16.9,10.1s7.9,10.1,17.6,10.1s17.6,4.6,17.6,10.1s7.5,10.1,16.6,10.1
			c9.1,0,16.6,4.6,16.6,10.1c0,5.6,6.3,10.1,14,10.1s15.8,0,18.1,0c2.3,0,4.1,3.9,4.1,8.7c0,4.8,6.5,8.7,14.5,8.7
			c8,0,14.5,5.3,14.5,11.6c0,6.4,5,11.6,11.1,11.6c6.1,0,22.4,0,36.2,0h16.3c13.8,0,30.1,0,36.2,0c6.1,0,11.1-5.3,11.1-11.6
			c0-6.4,5.3-11.6,11.6-11.6s11.6-3.9,11.6-8.7c0-4.8,2.7-8.7,5.9-8.7c3.2,0,13.5,0,22.7,0c9.3,0,16.9-4.6,16.9-10.1
			c0-5.6,10.4-10.1,23.1-10.1c12.7,0,23.1-4.6,23.1-10.1s6.4-10.1,14.3-10.1c7.9,0,14.3-4.6,14.3-10.1s0-14.7,0-20.3
			s4.2-10.1,9.3-10.1c5.1,0,9.3-4.6,9.3-10.1c0-5.5,0-10.2,0-10.3s0-4.6,0-10.1c0-5.5,5.5-10,12.4-10c6.9,0,12.4-4.6,12.4-10.1
			s0-10.2,0-10.3c0-0.1,0-4.6,0-10.1s3.5-10,7.8-10s7.8-4.6,7.8-10.3s-4.4-10.3-9.9-10.3c-5.4,0-9.9-4.5-9.9-10
			C539.4,308.2,546.5,303.6,555.3,303.6z"/>
	</g>
	<g>
		<ellipse class="st1" cx="590.3" cy="298" rx="9.7" ry="10.5"/>
	</g>
	<g>
		<ellipse class="st2" cx="63" cy="440" rx="9.7" ry="10.5"/>
	</g>
	<g>
		<path class="st2" d="M49.7,160.9c0-2.1-1.9-3.8-4.2-3.8c-2.3,0-4.2-1.9-4.2-4.2c0-2.3-1.7-4.2-3.8-4.2s-3.8,1.9-3.8,4.2
			c0,2.3-1.9,4.2-4.2,4.2s-4.2,1.7-4.2,3.8s1.9,3.8,4.2,3.8s4.2,1.9,4.2,4.2s1.7,4.2,3.8,4.2s3.8-1.9,3.8-4.2s1.9-4.2,4.2-4.2
			C47.8,164.7,49.7,163,49.7,160.9z"/>
	</g>
	<g>
		<path class="st2" d="M37.2,358.6c0-1.7-1.5-3.1-3.4-3.1c-1.9,0-3.4-1.5-3.4-3.4c0-1.8-1.4-3.4-3.1-3.4s-3,1.6-3,3.4
			c0,1.8-1.5,3.4-3.4,3.4s-3.4,1.4-3.4,3.1c0,1.7,1.5,3.1,3.4,3.1s3.4,1.5,3.4,3.4c0,1.8,1.4,3.4,3.1,3.4s3.1-1.5,3.1-3.4
			c0-1.8,1.5-3.4,3.4-3.4C35.8,361.7,37.2,360.2,37.2,358.6z"/>
	</g>
	<g>
		<path class="st3" d="M488.7,21.6c0-1.7-1.5-3.1-3.4-3.1s-3.4-1.5-3.4-3.4s-1.4-3.4-3.1-3.4s-3.1,1.5-3.1,3.4s-1.5,3.4-3.4,3.4
			c-1.8,0-3.4,1.4-3.4,3.1c0,1.7,1.5,3.1,3.4,3.1c1.8,0,3.4,1.5,3.4,3.4s1.4,3.4,3.1,3.4s3.1-1.5,3.1-3.4s1.5-3.4,3.4-3.4
			S488.7,23.2,488.7,21.6z"/>
	</g>
	<g>
		<path class="st1" d="M217.4,34.4c1.7-0.4,2.7-2.2,2.2-4c-0.4-1.8,0.8-3.7,2.5-4.1c1.8-0.4,3-2.1,2.6-3.8c-0.4-1.7-2.2-2.7-4-2.2
			c-1.8,0.4-3.7-0.8-4.1-2.5c-0.4-1.8-2.1-3-3.8-2.6c-1.7,0.4-2.7,2.2-2.2,4c0.4,1.8-0.8,3.7-2.5,4.1c-1.8,0.4-3,2.1-2.6,3.8
			s2.2,2.7,4,2.2s3.7,0.8,4.1,2.5C214.1,33.5,215.8,34.7,217.4,34.4z"/>
	</g>
	<g>
		<path class="st3" d="M100.4,505.3c0.9-1.4,0.3-3.4-1.3-4.4c-1.6-1-2.1-3.1-1.2-4.7c1-1.6,0.6-3.6-0.8-4.5
			c-1.4-0.9-3.4-0.3-4.4,1.3c-1,1.6-3.1,2.1-4.7,1.2s-3.6-0.6-4.5,0.8s-0.3,3.4,1.3,4.4c1.6,1,2.1,3.1,1.2,4.7
			c-1,1.6-0.6,3.6,0.8,4.5c1.4,0.9,3.4,0.3,4.4-1.3c1-1.6,3.1-2.1,4.7-1.2S99.6,506.7,100.4,505.3z"/>
	</g>
	<g>
		<path class="st2" d="M587.6,164.3c0-1.7-1.5-3.1-3.4-3.1s-3.4-1.5-3.4-3.4c0-1.9-1.4-3.4-3.1-3.4s-3.1,1.5-3.1,3.4
			c0,1.9-1.5,3.4-3.4,3.4s-3.4,1.4-3.4,3.1s1.5,3.1,3.4,3.1s3.4,1.5,3.4,3.4c0,1.9,1.4,3.4,3.1,3.4s3.1-1.5,3.1-3.4
			c0-1.9,1.5-3.4,3.4-3.4S587.6,165.9,587.6,164.3z"/>
	</g>
	<g>
		<path class="st2" d="M543,453c0-1.7-1.5-3.1-3.4-3.1c-1.8,0-3.4-1.5-3.4-3.4c0-1.9-1.4-3.4-3.1-3.4c-1.7,0-3.1,1.5-3.1,3.4
			c0,1.9-1.5,3.4-3.4,3.4s-3.4,1.4-3.4,3.1s1.5,3.1,3.4,3.1s3.4,1.5,3.4,3.4s1.4,3.4,3.1,3.4c1.7,0,3.1-1.5,3.1-3.4s1.5-3.4,3.4-3.4
			C541.5,456,543,454.7,543,453z"/>
	</g>
	<circle class="st1" cx="407.6" cy="7.9" r="7.9"/>
	<circle class="st3" cx="571.4" cy="85.7" r="4.6"/>
	<circle class="st3" cx="48.2" cy="79.5" r="4.6"/>
	<circle class="st3" cx="4.6" cy="283" r="4.6"/>
	<circle class="st3" cx="586.5" cy="408" r="10.4"/>
	<ellipse class="st3" cx="122.1" cy="33.5" rx="7.9" ry="7.9"/>
	<ellipse transform="matrix(0.2307 -0.973 0.973 0.2307 331.9958 545.3515)" class="st2" cx="510.9" cy="62.7" rx="7.9" ry="7.9"/>
	<g>
		<g>
			<g>
				<path class="st4" d="M417.7,378.6l-13.9,13.5c-8.1,7.8-21,7.5-28.8-0.5L213.3,223.7c-7.8-8.1-7.5-21,0.5-28.8l14-13.5
					c8.1-7.8,21-7.5,28.8,0.5l161.6,167.8C426,358,425.8,370.9,417.7,378.6z"/>
			</g>
			<g>
				<path class="st4" d="M224,388.7l-13.5-14c-7.8-8.1-7.5-21,0.5-28.8l167.8-161.6c8.1-7.8,21-7.5,28.8,0.5l13.5,14
					c7.8,8.1,7.5,21-0.5,28.8L252.7,389.2C244.6,397,231.7,396.8,224,388.7z"/>
			</g>
		</g>
		<g>
			<path class="st3" d="M401.4,373.2l-9.5,9.2c-8.1,7.8-21,7.5-28.8-0.5L201.5,214c-7.8-8.1-7.5-21,0.5-28.8l9.5-9.2
				c8.1-7.8,21-7.5,28.8,0.5l161.6,167.8C409.8,352.5,409.6,365.3,401.4,373.2z"/>
			<path class="st3" d="M207.8,378.9l-9.2-9.5c-7.8-8.1-7.5-21,0.5-28.8L366.9,179c8.1-7.8,21-7.5,28.8,0.5l9.2,9.5
				c7.8,8.1,7.5,21-0.5,28.8L236.6,379.5C228.5,387.2,215.6,387,207.8,378.9z"/>
		</g>
	</g>
</g>
</svg>
