<svg id="Layer_1" data-name="Layer 1" xmlns="http://www.w3.org/2000/svg" viewBox="0 0 39 22"><defs><style>.cls-1,.cls-2,.cls-3,.cls-4{fill:#fbba42;}.cls-1{opacity:0.7;}.cls-1,.cls-2,.cls-3{isolation:isolate;}.cls-2{opacity:0.8;}.cls-3{opacity:0.9;}</style></defs><title>arrow1</title><polygon class="cls-1" points="0 0 0 7.75 3.25 11 0 14.25 0 22 11 11 0 0"/><polygon class="cls-1" points="7 0 7 5.5 12.5 11 7 16.5 7 22 18 11 7 0"/><polygon class="cls-2" points="14 0 14 5.5 19.5 11 14 16.5 14 22 25 11 14 0"/><polygon class="cls-3" points="21 0 21 5.5 26.5 11 21 16.5 21 22 32 11 21 0"/><polygon class="cls-4" points="28 0 28 5.5 33.5 11 28 16.5 28 22 39 11 28 0"/></svg>