<?xml version="1.0" encoding="utf-8"?>
<!-- Generator: Adobe Illustrator 22.0.1, SVG Export Plug-In . SVG Version: 6.00 Build 0)  -->
<svg version="1.1" id="Layer_1" xmlns="http://www.w3.org/2000/svg" xmlns:xlink="http://www.w3.org/1999/xlink" x="0px" y="0px"
	 viewBox="0 0 600 600" enable-background="new 0 0 600 600" xml:space="preserve">
<g>
	<g>
		<g>
			<g>
				<path fill="#E3FFFE" d="M361.4,338.3c-2.6,0-5.2-0.2-7.8-0.5c-15.8-2.1-29.7-10.4-39.1-23.4c-0.8-1.1-2-1.7-3.2-1.7
					c-0.4,0-0.8,0.1-1.3,0.2c-6.1,2-12.4,3-18.7,3c-2.6,0-5.2-0.2-7.8-0.5c-15.8-2.1-29.8-10.3-39.5-22.9
					c-9.7-12.7-13.8-28.3-11.7-44.1c3.1-23,19.5-42.3,41.8-49.1c1.3-0.4,2.2-1.4,2.6-2.6c7.5-23.6,29.1-39.4,53.8-39.4
					c2.5,0,5.1,0.2,7.6,0.5c8.7,1.2,16.8,4.3,24.1,9.3c0.7,0.5,1.5,0.7,2.2,0.7c1.2,0,2.4-0.5,3.2-1.6
					c10.3-13.3,26.5-21.3,43.3-21.3c2.4,0,4.9,0.2,7.3,0.5c14.5,1.9,27.4,9.4,36.3,21.1c8.9,11.6,12.7,26,10.7,40.5
					c-0.6,4.2-1.7,8.4-3.3,12.6c-0.4,1.1-0.3,2.4,0.3,3.5c0.6,1.1,1.7,1.8,2.9,1.9c0.2,0,0.4,0,0.5,0c14.2,1.9,26.9,9.2,35.6,20.6
					c8.7,11.4,12.4,25.5,10.5,39.7c-3.6,26.5-26.4,46.5-53.1,46.5c0,0,0,0,0,0c-2.4,0-4.8-0.2-7.2-0.5c-13.9-1.9-26.3-9-35-20
					c-0.8-1-1.9-1.5-3.1-1.5c-0.1,0-0.1,0-0.2,0c-1.3,0.1-2.5,0.7-3.2,1.8C399.2,328.4,381.1,338.3,361.4,338.3z"/>
				<path fill="#A0D8D6" d="M410.9,148.9c2.3,0,4.6,0.2,6.8,0.5c13.4,1.8,25.4,8.7,33.6,19.5c8.2,10.8,11.8,24.1,10,37.6
					c-0.5,3.9-1.6,7.8-3.1,11.7c-0.9,2.3-0.7,4.9,0.6,7c1.3,2.1,3.4,3.5,5.9,3.8c0.2,0,0.5,0,0.7,0.1c13.1,1.8,24.7,8.6,32.7,19.1
					c8,10.5,11.5,23.6,9.7,36.8c-3.3,24.6-24.4,43.1-49.2,43.1c-2.2,0-4.5-0.2-6.7-0.4c-12.9-1.7-24.4-8.3-32.4-18.6
					c-1.5-1.9-3.8-3.1-6.3-3.1c-0.1,0-0.2,0-0.4,0c-2.6,0.1-4.9,1.5-6.4,3.7c-10,15.5-26.9,24.7-45.2,24.7c-2.4,0-4.8-0.2-7.2-0.5
					c-14.7-2-27.6-9.7-36.4-21.8c-1.5-2.1-4-3.3-6.5-3.3c-0.8,0-1.7,0.1-2.5,0.4c-5.7,1.9-11.6,2.8-17.5,2.8c-2.4,0-4.9-0.2-7.3-0.5
					c-14.7-2-27.8-9.6-36.8-21.4c-9-11.8-12.9-26.4-10.9-41.2c2.9-21.5,18.2-39.5,39-45.8c2.5-0.8,4.5-2.7,5.3-5.2
					c3.4-10.6,10-19.8,19-26.4c9.1-6.7,19.8-10.2,31-10.2c2.3,0,4.7,0.2,7.1,0.5c8.1,1.1,15.6,4,22.4,8.6c1.4,0.9,2.9,1.4,4.5,1.4
					c2.4,0,4.8-1.1,6.3-3.1C380.4,156.3,395.4,148.9,410.9,148.9 M410.9,140.9c-18.5,0-35.5,8.8-46.4,22.9
					c-7.5-5.1-16.2-8.6-25.9-9.9c-2.7-0.4-5.4-0.5-8.1-0.5c-26.3,0-49.6,17.2-57.6,42.2c-23.1,7-41.2,26.9-44.6,52.4
					c-4.7,34.8,19.8,66.9,54.6,71.6c2.8,0.4,5.6,0.6,8.4,0.6c6.9,0,13.6-1.1,20-3.2c9.6,13.2,24.3,22.7,41.8,25
					c2.8,0.4,5.6,0.6,8.3,0.6c21.4,0,40.7-11.1,51.9-28.4c8.9,11.4,22.1,19.5,37.6,21.5c2.6,0.3,5.2,0.5,7.8,0.5
					c28.4,0,53.2-21,57.1-50c4.2-31.6-17.9-60.6-49.5-64.9c-0.2,0-0.4,0-0.6-0.1c1.7-4.3,2.9-8.8,3.6-13.6
					c4.3-32.2-18.3-61.8-50.4-66.1C416.2,141.1,413.5,140.9,410.9,140.9L410.9,140.9z"/>
			</g>
			<g opacity="0.2">
				<path fill="#E3FFFE" d="M361.4,338.3c-2.6,0-5.2-0.2-7.8-0.5c-15.8-2.1-29.7-10.4-39.1-23.4c-0.8-1.1-2-1.7-3.2-1.7
					c-0.4,0-0.8,0.1-1.3,0.2c-6.1,2-12.4,3-18.7,3c-2.6,0-5.2-0.2-7.8-0.5c-15.8-2.1-29.8-10.3-39.5-22.9
					c-9.7-12.7-13.8-28.3-11.7-44.1c3.1-23,19.5-42.3,41.8-49.1c1.3-0.4,2.2-1.4,2.6-2.6c7.5-23.6,29.1-39.4,53.8-39.4
					c2.5,0,5.1,0.2,7.6,0.5c8.7,1.2,16.8,4.3,24.1,9.3c0.7,0.5,1.5,0.7,2.2,0.7c1.2,0,2.4-0.5,3.2-1.6
					c10.3-13.3,26.5-21.3,43.3-21.3c2.4,0,4.9,0.2,7.3,0.5c14.5,1.9,27.4,9.4,36.3,21.1c8.9,11.6,12.7,26,10.7,40.5
					c-0.6,4.2-1.7,8.4-3.3,12.6c-0.4,1.1-0.3,2.4,0.3,3.5c0.6,1.1,1.7,1.8,2.9,1.9c0.2,0,0.4,0,0.5,0c14.2,1.9,26.9,9.2,35.6,20.6
					c8.7,11.4,12.4,25.5,10.5,39.7c-3.6,26.5-26.4,46.5-53.1,46.5c0,0,0,0,0,0c-2.4,0-4.8-0.2-7.2-0.5c-13.9-1.9-26.3-9-35-20
					c-0.8-1-1.9-1.5-3.1-1.5c-0.1,0-0.1,0-0.2,0c-1.3,0.1-2.5,0.7-3.2,1.8C399.2,328.4,381.1,338.3,361.4,338.3z"/>
				<path fill="#A0D8D6" d="M410.9,148.9c2.3,0,4.6,0.2,6.8,0.5c13.4,1.8,25.4,8.7,33.6,19.5c8.2,10.8,11.8,24.1,10,37.6
					c-0.5,3.9-1.6,7.8-3.1,11.7c-0.9,2.3-0.7,4.9,0.6,7c1.3,2.1,3.4,3.5,5.9,3.8c0.2,0,0.5,0,0.7,0.1c13.1,1.8,24.7,8.6,32.7,19.1
					c8,10.5,11.5,23.6,9.7,36.8c-3.3,24.6-24.4,43.1-49.2,43.1c-2.2,0-4.5-0.2-6.7-0.4c-12.9-1.7-24.4-8.3-32.4-18.6
					c-1.5-1.9-3.8-3.1-6.3-3.1c-0.1,0-0.2,0-0.4,0c-2.6,0.1-4.9,1.5-6.4,3.7c-10,15.5-26.9,24.7-45.2,24.7c-2.4,0-4.8-0.2-7.2-0.5
					c-14.7-2-27.6-9.7-36.4-21.8c-1.5-2.1-4-3.3-6.5-3.3c-0.8,0-1.7,0.1-2.5,0.4c-5.7,1.9-11.6,2.8-17.5,2.8c-2.4,0-4.9-0.2-7.3-0.5
					c-14.7-2-27.8-9.6-36.8-21.4c-9-11.8-12.9-26.4-10.9-41.2c2.9-21.5,18.2-39.5,39-45.8c2.5-0.8,4.5-2.7,5.3-5.2
					c3.4-10.6,10-19.8,19-26.4c9.1-6.7,19.8-10.2,31-10.2c2.3,0,4.7,0.2,7.1,0.5c8.1,1.1,15.6,4,22.4,8.6c1.4,0.9,2.9,1.4,4.5,1.4
					c2.4,0,4.8-1.1,6.3-3.1C380.4,156.3,395.4,148.9,410.9,148.9 M410.9,140.9c-18.5,0-35.5,8.8-46.4,22.9
					c-7.5-5.1-16.2-8.6-25.9-9.9c-2.7-0.4-5.4-0.5-8.1-0.5c-26.3,0-49.6,17.2-57.6,42.2c-23.1,7-41.2,26.9-44.6,52.4
					c-4.7,34.8,19.8,66.9,54.6,71.6c2.8,0.4,5.6,0.6,8.4,0.6c6.9,0,13.6-1.1,20-3.2c9.6,13.2,24.3,22.7,41.8,25
					c2.8,0.4,5.6,0.6,8.3,0.6c21.4,0,40.7-11.1,51.9-28.4c8.9,11.4,22.1,19.5,37.6,21.5c2.6,0.3,5.2,0.5,7.8,0.5
					c28.4,0,53.2-21,57.1-50c4.2-31.6-17.9-60.6-49.5-64.9c-0.2,0-0.4,0-0.6-0.1c1.7-4.3,2.9-8.8,3.6-13.6
					c4.3-32.2-18.3-61.8-50.4-66.1C416.2,141.1,413.5,140.9,410.9,140.9L410.9,140.9z"/>
			</g>
		</g>
		<g>
			<g>
				<path fill="#E3FFFE" d="M217.1,325.2c-2.6,0-5.2-0.2-7.8-0.5c-15.8-2.1-29.7-10.4-39.1-23.4c-0.8-1.1-2-1.7-3.2-1.7
					c-0.4,0-0.8,0.1-1.3,0.2c-6.1,2-12.4,3-18.7,3c-2.6,0-5.2-0.2-7.8-0.5c-15.8-2.1-29.8-10.3-39.5-22.9
					c-9.7-12.7-13.8-28.3-11.7-44.1c3.1-23,19.5-42.3,41.8-49.1c1.3-0.4,2.2-1.4,2.6-2.6c7.5-23.6,29.1-39.4,53.8-39.4
					c2.5,0,5.1,0.2,7.6,0.5c8.7,1.2,16.8,4.3,24.1,9.3c0.7,0.5,1.5,0.7,2.2,0.7c1.2,0,2.4-0.5,3.2-1.6
					c10.3-13.3,26.5-21.3,43.3-21.3c2.4,0,4.9,0.2,7.3,0.5c14.5,1.9,27.4,9.4,36.3,21.1c8.9,11.6,12.7,26,10.7,40.5
					c-0.6,4.2-1.7,8.4-3.3,12.6c-0.4,1.1-0.3,2.4,0.3,3.5s1.7,1.8,2.9,1.9c0.2,0,0.4,0,0.5,0c14.3,1.9,26.9,9.2,35.6,20.6
					c8.7,11.4,12.4,25.5,10.5,39.7c-3.6,26.5-26.4,46.5-53.1,46.5c0,0,0,0,0,0c-2.4,0-4.8-0.2-7.2-0.5c-13.9-1.9-26.3-9-35-20
					c-0.8-1-1.9-1.5-3.1-1.5c-0.1,0-0.1,0-0.2,0c-1.3,0.1-2.5,0.7-3.2,1.8C255,315.3,236.8,325.2,217.1,325.2z"/>
				<path fill="#A0D8D6" d="M266.7,135.8c2.3,0,4.6,0.2,6.8,0.5c13.4,1.8,25.4,8.7,33.6,19.5c8.2,10.8,11.8,24.1,10,37.6
					c-0.5,3.9-1.6,7.8-3.1,11.7c-0.9,2.3-0.7,4.9,0.6,7c1.3,2.1,3.4,3.5,5.9,3.8c0.2,0,0.5,0,0.7,0.1c13.1,1.8,24.7,8.6,32.7,19.1
					c8,10.5,11.5,23.6,9.7,36.8c-3.3,24.6-24.4,43.1-49.2,43.1c-2.2,0-4.5-0.2-6.7-0.4c-12.9-1.7-24.4-8.3-32.4-18.6
					c-1.5-1.9-3.8-3.1-6.3-3.1c-0.1,0-0.2,0-0.4,0c-2.6,0.1-4.9,1.5-6.4,3.7c-10,15.5-26.9,24.7-45.2,24.7c-2.4,0-4.8-0.2-7.2-0.5
					c-14.7-2-27.6-9.7-36.4-21.8c-1.5-2.1-4-3.3-6.5-3.3c-0.8,0-1.7,0.1-2.5,0.4c-5.7,1.9-11.6,2.8-17.5,2.8c-2.4,0-4.9-0.2-7.3-0.5
					c-14.7-2-27.8-9.6-36.8-21.4c-9-11.8-12.9-26.4-10.9-41.2c2.9-21.5,18.2-39.5,39-45.8c2.5-0.8,4.5-2.7,5.3-5.2
					c3.4-10.6,10-19.8,19-26.4c9.1-6.7,19.8-10.2,31-10.2c2.3,0,4.7,0.2,7.1,0.5c8.1,1.1,15.6,4,22.4,8.6c1.4,0.9,2.9,1.4,4.5,1.4
					c2.4,0,4.8-1.1,6.3-3.1C236.2,143.2,251.2,135.8,266.7,135.8 M266.7,127.8c-18.5,0-35.5,8.8-46.4,22.9
					c-7.5-5.1-16.2-8.6-25.9-9.9c-2.7-0.4-5.4-0.5-8.1-0.5c-26.3,0-49.6,17.2-57.6,42.2c-23.1,7-41.2,26.9-44.6,52.4
					c-4.7,34.8,19.8,66.9,54.6,71.6c2.8,0.4,5.6,0.6,8.4,0.6c6.9,0,13.6-1.1,20-3.2c9.6,13.2,24.3,22.7,41.8,25
					c2.8,0.4,5.6,0.6,8.3,0.6c21.4,0,40.7-11.1,51.9-28.4c8.9,11.4,22.1,19.5,37.6,21.5c2.6,0.3,5.2,0.5,7.8,0.5
					c28.4,0,53.2-21,57.1-50c4.2-31.6-17.9-60.6-49.5-64.9c-0.2,0-0.4,0-0.6-0.1c1.7-4.3,2.9-8.8,3.6-13.6
					c4.3-32.2-18.3-61.8-50.4-66.1C271.9,128,269.3,127.8,266.7,127.8L266.7,127.8z"/>
			</g>
			<g opacity="0.2">
				<path fill="#E3FFFE" d="M217.1,325.2c-2.6,0-5.2-0.2-7.8-0.5c-15.8-2.1-29.7-10.4-39.1-23.4c-0.8-1.1-2-1.7-3.2-1.7
					c-0.4,0-0.8,0.1-1.3,0.2c-6.1,2-12.4,3-18.7,3c-2.6,0-5.2-0.2-7.8-0.5c-15.8-2.1-29.8-10.3-39.5-22.9
					c-9.7-12.7-13.8-28.3-11.7-44.1c3.1-23,19.5-42.3,41.8-49.1c1.3-0.4,2.2-1.4,2.6-2.6c7.5-23.6,29.1-39.4,53.8-39.4
					c2.5,0,5.1,0.2,7.6,0.5c8.7,1.2,16.8,4.3,24.1,9.3c0.7,0.5,1.5,0.7,2.2,0.7c1.2,0,2.4-0.5,3.2-1.6
					c10.3-13.3,26.5-21.3,43.3-21.3c2.4,0,4.9,0.2,7.3,0.5c14.5,1.9,27.4,9.4,36.3,21.1c8.9,11.6,12.7,26,10.7,40.5
					c-0.6,4.2-1.7,8.4-3.3,12.6c-0.4,1.1-0.3,2.4,0.3,3.5s1.7,1.8,2.9,1.9c0.2,0,0.4,0,0.5,0c14.3,1.9,26.9,9.2,35.6,20.6
					c8.7,11.4,12.4,25.5,10.5,39.7c-3.6,26.5-26.4,46.5-53.1,46.5c0,0,0,0,0,0c-2.4,0-4.8-0.2-7.2-0.5c-13.9-1.9-26.3-9-35-20
					c-0.8-1-1.9-1.5-3.1-1.5c-0.1,0-0.1,0-0.2,0c-1.3,0.1-2.5,0.7-3.2,1.8C255,315.3,236.8,325.2,217.1,325.2z"/>
				<path fill="#A0D8D6" d="M266.7,135.8c2.3,0,4.6,0.2,6.8,0.5c13.4,1.8,25.4,8.7,33.6,19.5c8.2,10.8,11.8,24.1,10,37.6
					c-0.5,3.9-1.6,7.8-3.1,11.7c-0.9,2.3-0.7,4.9,0.6,7c1.3,2.1,3.4,3.5,5.9,3.8c0.2,0,0.5,0,0.7,0.1c13.1,1.8,24.7,8.6,32.7,19.1
					c8,10.5,11.5,23.6,9.7,36.8c-3.3,24.6-24.4,43.1-49.2,43.1c-2.2,0-4.5-0.2-6.7-0.4c-12.9-1.7-24.4-8.3-32.4-18.6
					c-1.5-1.9-3.8-3.1-6.3-3.1c-0.1,0-0.2,0-0.4,0c-2.6,0.1-4.9,1.5-6.4,3.7c-10,15.5-26.9,24.7-45.2,24.7c-2.4,0-4.8-0.2-7.2-0.5
					c-14.7-2-27.6-9.7-36.4-21.8c-1.5-2.1-4-3.3-6.5-3.3c-0.8,0-1.7,0.1-2.5,0.4c-5.7,1.9-11.6,2.8-17.5,2.8c-2.4,0-4.9-0.2-7.3-0.5
					c-14.7-2-27.8-9.6-36.8-21.4c-9-11.8-12.9-26.4-10.9-41.2c2.9-21.5,18.2-39.5,39-45.8c2.5-0.8,4.5-2.7,5.3-5.2
					c3.4-10.6,10-19.8,19-26.4c9.1-6.7,19.8-10.2,31-10.2c2.3,0,4.7,0.2,7.1,0.5c8.1,1.1,15.6,4,22.4,8.6c1.4,0.9,2.9,1.4,4.5,1.4
					c2.4,0,4.8-1.1,6.3-3.1C236.2,143.2,251.2,135.8,266.7,135.8 M266.7,127.8c-18.5,0-35.5,8.8-46.4,22.9
					c-7.5-5.1-16.2-8.6-25.9-9.9c-2.7-0.4-5.4-0.5-8.1-0.5c-26.3,0-49.6,17.2-57.6,42.2c-23.1,7-41.2,26.9-44.6,52.4
					c-4.7,34.8,19.8,66.9,54.6,71.6c2.8,0.4,5.6,0.6,8.4,0.6c6.9,0,13.6-1.1,20-3.2c9.6,13.2,24.3,22.7,41.8,25
					c2.8,0.4,5.6,0.6,8.3,0.6c21.4,0,40.7-11.1,51.9-28.4c8.9,11.4,22.1,19.5,37.6,21.5c2.6,0.3,5.2,0.5,7.8,0.5
					c28.4,0,53.2-21,57.1-50c4.2-31.6-17.9-60.6-49.5-64.9c-0.2,0-0.4,0-0.6-0.1c1.7-4.3,2.9-8.8,3.6-13.6
					c4.3-32.2-18.3-61.8-50.4-66.1C271.9,128,269.3,127.8,266.7,127.8L266.7,127.8z"/>
			</g>
		</g>
		<g>
			<g>
				<path fill="#E3FFFE" d="M133.6,423.6c-2.6,0-5.2-0.2-7.8-0.5c-15.8-2.1-29.7-10.4-39.1-23.4c-0.8-1.1-2-1.7-3.2-1.7
					c-0.4,0-0.8,0.1-1.3,0.2c-6.1,2-12.4,3-18.7,3c-2.6,0-5.2-0.2-7.8-0.5c-15.8-2.1-29.8-10.3-39.5-22.9S2.4,349.5,4.5,333.7
					c3.1-23,19.5-42.3,41.8-49.1c1.3-0.4,2.2-1.4,2.6-2.6c7.5-23.6,29.1-39.4,53.8-39.4c2.5,0,5.1,0.2,7.6,0.5
					c8.7,1.2,16.8,4.3,24.1,9.3c0.7,0.5,1.5,0.7,2.2,0.7c1.2,0,2.4-0.5,3.2-1.6c10.3-13.3,26.5-21.3,43.3-21.3
					c2.4,0,4.9,0.2,7.3,0.5c14.5,1.9,27.4,9.4,36.3,21.1c8.9,11.6,12.7,26,10.7,40.5c-0.6,4.2-1.7,8.4-3.3,12.6
					c-0.4,1.1-0.3,2.4,0.3,3.5c0.6,1.1,1.7,1.8,2.9,1.9c0.2,0,0.4,0,0.6,0c14.2,1.9,26.9,9.2,35.6,20.6
					c8.7,11.4,12.4,25.5,10.5,39.7c-3.6,26.5-26.4,46.5-53.1,46.5c0,0,0,0,0,0c-2.4,0-4.8-0.2-7.2-0.5c-13.9-1.9-26.3-9-35-20
					c-0.8-1-1.9-1.5-3.1-1.5c-0.1,0-0.1,0-0.2,0c-1.3,0.1-2.5,0.7-3.2,1.8C171.4,413.7,153.3,423.6,133.6,423.6z"/>
				<path fill="#A0D8D6" d="M183.2,234.2c2.3,0,4.6,0.2,6.8,0.5c13.4,1.8,25.4,8.7,33.6,19.5c8.2,10.8,11.8,24.1,10,37.6
					c-0.5,3.9-1.6,7.8-3.1,11.7c-0.9,2.3-0.7,4.9,0.6,7c1.3,2.1,3.4,3.5,5.9,3.8c0.2,0,0.5,0,0.7,0.1c13.1,1.8,24.7,8.6,32.7,19.1
					c8,10.5,11.5,23.6,9.7,36.8c-3.3,24.6-24.4,43.1-49.2,43.1c-2.2,0-4.5-0.2-6.7-0.4c-12.9-1.7-24.4-8.3-32.4-18.6
					c-1.5-1.9-3.8-3.1-6.3-3.1c-0.1,0-0.2,0-0.4,0c-2.6,0.1-4.9,1.5-6.4,3.7c-10,15.5-26.9,24.7-45.2,24.7c-2.4,0-4.8-0.2-7.2-0.5
					c-14.7-2-27.6-9.7-36.4-21.8c-1.5-2.1-4-3.3-6.5-3.3c-0.8,0-1.7,0.1-2.5,0.4c-5.7,1.9-11.6,2.8-17.5,2.8c-2.4,0-4.9-0.2-7.3-0.5
					c-14.7-2-27.8-9.6-36.8-21.4c-9-11.8-12.9-26.4-10.9-41.2c2.9-21.5,18.2-39.5,39-45.8c2.5-0.8,4.5-2.7,5.3-5.2
					c3.4-10.6,10-19.8,19-26.4c9.1-6.7,19.8-10.2,31-10.2c2.3,0,4.7,0.2,7.1,0.5c8.1,1.1,15.6,4,22.4,8.6c1.4,0.9,2.9,1.4,4.5,1.4
					c2.4,0,4.8-1.1,6.3-3.1C152.6,241.6,167.6,234.2,183.2,234.2 M183.2,226.2c-18.5,0-35.5,8.8-46.4,22.9
					c-7.5-5.1-16.2-8.6-25.9-9.9c-2.7-0.4-5.4-0.5-8.1-0.5c-26.3,0-49.6,17.2-57.6,42.2c-23.1,7-41.2,26.9-44.6,52.4
					C-4.1,368,20.3,400,55.2,404.7c2.8,0.4,5.6,0.6,8.4,0.6c6.9,0,13.6-1.1,20-3.2c9.6,13.2,24.3,22.7,41.8,25
					c2.8,0.4,5.6,0.6,8.3,0.6c21.4,0,40.7-11.1,51.9-28.4c8.9,11.4,22.1,19.5,37.6,21.5c2.6,0.3,5.2,0.5,7.8,0.5
					c28.4,0,53.2-21,57.1-50c4.2-31.6-17.9-60.6-49.5-64.9c-0.2,0-0.4,0-0.6-0.1c1.7-4.3,2.9-8.8,3.6-13.6
					c4.3-32.2-18.3-61.8-50.4-66.1C188.4,226.4,185.8,226.2,183.2,226.2L183.2,226.2z"/>
			</g>
			<g opacity="0.2">
				<path fill="#E3FFFE" d="M133.6,423.6c-2.6,0-5.2-0.2-7.8-0.5c-15.8-2.1-29.7-10.4-39.1-23.4c-0.8-1.1-2-1.7-3.2-1.7
					c-0.4,0-0.8,0.1-1.3,0.2c-6.1,2-12.4,3-18.7,3c-2.6,0-5.2-0.2-7.8-0.5c-15.8-2.1-29.8-10.3-39.5-22.9S2.4,349.5,4.5,333.7
					c3.1-23,19.5-42.3,41.8-49.1c1.3-0.4,2.2-1.4,2.6-2.6c7.5-23.6,29.1-39.4,53.8-39.4c2.5,0,5.1,0.2,7.6,0.5
					c8.7,1.2,16.8,4.3,24.1,9.3c0.7,0.5,1.5,0.7,2.2,0.7c1.2,0,2.4-0.5,3.2-1.6c10.3-13.3,26.5-21.3,43.3-21.3
					c2.4,0,4.9,0.2,7.3,0.5c14.5,1.9,27.4,9.4,36.3,21.1c8.9,11.6,12.7,26,10.7,40.5c-0.6,4.2-1.7,8.4-3.3,12.6
					c-0.4,1.1-0.3,2.4,0.3,3.5c0.6,1.1,1.7,1.8,2.9,1.9c0.2,0,0.4,0,0.6,0c14.2,1.9,26.9,9.2,35.6,20.6
					c8.7,11.4,12.4,25.5,10.5,39.7c-3.6,26.5-26.4,46.5-53.1,46.5c0,0,0,0,0,0c-2.4,0-4.8-0.2-7.2-0.5c-13.9-1.9-26.3-9-35-20
					c-0.8-1-1.9-1.5-3.1-1.5c-0.1,0-0.1,0-0.2,0c-1.3,0.1-2.5,0.7-3.2,1.8C171.4,413.7,153.3,423.6,133.6,423.6z"/>
				<path fill="#A0D8D6" d="M183.2,234.2c2.3,0,4.6,0.2,6.8,0.5c13.4,1.8,25.4,8.7,33.6,19.5c8.2,10.8,11.8,24.1,10,37.6
					c-0.5,3.9-1.6,7.8-3.1,11.7c-0.9,2.3-0.7,4.9,0.6,7c1.3,2.1,3.4,3.5,5.9,3.8c0.2,0,0.5,0,0.7,0.1c13.1,1.8,24.7,8.6,32.7,19.1
					c8,10.5,11.5,23.6,9.7,36.8c-3.3,24.6-24.4,43.1-49.2,43.1c-2.2,0-4.5-0.2-6.7-0.4c-12.9-1.7-24.4-8.3-32.4-18.6
					c-1.5-1.9-3.8-3.1-6.3-3.1c-0.1,0-0.2,0-0.4,0c-2.6,0.1-4.9,1.5-6.4,3.7c-10,15.5-26.9,24.7-45.2,24.7c-2.4,0-4.8-0.2-7.2-0.5
					c-14.7-2-27.6-9.7-36.4-21.8c-1.5-2.1-4-3.3-6.5-3.3c-0.8,0-1.7,0.1-2.5,0.4c-5.7,1.9-11.6,2.8-17.5,2.8c-2.4,0-4.9-0.2-7.3-0.5
					c-14.7-2-27.8-9.6-36.8-21.4c-9-11.8-12.9-26.4-10.9-41.2c2.9-21.5,18.2-39.5,39-45.8c2.5-0.8,4.5-2.7,5.3-5.2
					c3.4-10.6,10-19.8,19-26.4c9.1-6.7,19.8-10.2,31-10.2c2.3,0,4.7,0.2,7.1,0.5c8.1,1.1,15.6,4,22.4,8.6c1.4,0.9,2.9,1.4,4.5,1.4
					c2.4,0,4.8-1.1,6.3-3.1C152.6,241.6,167.6,234.2,183.2,234.2 M183.2,226.2c-18.5,0-35.5,8.8-46.4,22.9
					c-7.5-5.1-16.2-8.6-25.9-9.9c-2.7-0.4-5.4-0.5-8.1-0.5c-26.3,0-49.6,17.2-57.6,42.2c-23.1,7-41.2,26.9-44.6,52.4
					C-4.1,368,20.3,400,55.2,404.7c2.8,0.4,5.6,0.6,8.4,0.6c6.9,0,13.6-1.1,20-3.2c9.6,13.2,24.3,22.7,41.8,25
					c2.8,0.4,5.6,0.6,8.3,0.6c21.4,0,40.7-11.1,51.9-28.4c8.9,11.4,22.1,19.5,37.6,21.5c2.6,0.3,5.2,0.5,7.8,0.5
					c28.4,0,53.2-21,57.1-50c4.2-31.6-17.9-60.6-49.5-64.9c-0.2,0-0.4,0-0.6-0.1c1.7-4.3,2.9-8.8,3.6-13.6
					c4.3-32.2-18.3-61.8-50.4-66.1C188.4,226.4,185.8,226.2,183.2,226.2L183.2,226.2z"/>
			</g>
		</g>
		<g opacity="0.2">
			<path fill="#FFFFFF" d="M455.4,425.2c-10.6,0-20.7-4.5-27.9-12.4c-0.7-0.8-1.7-1.3-2.8-1.3c0,0-0.1,0-0.1,0c-1,0-2,0.4-2.8,1.1
				c-8.4,8.1-19.4,12.6-31,12.6c-15,0-28.9-7.5-37.3-20c-0.6-1-1.7-1.6-2.8-1.8c-0.2,0-0.3,0-0.5,0c-1,0-1.9,0.4-2.7,1
				c-9.8,8.7-22.4,13.5-35.4,13.5c-29.5,0-53.5-24-53.5-53.5c0-28.9,22.6-52.3,51.5-53.4c2.1-0.1,3.9-1.8,3.9-4c0-0.1,0-0.1,0-0.2
				c0.1-30.6,25-55.5,55.6-55.5c20.1,0,38.7,10.9,48.6,28.5c0.6,1,1.5,1.7,2.6,1.9c0.3,0.1,0.6,0.1,0.9,0.1c0.8,0,1.6-0.2,2.3-0.7
				c8.8-6.1,19.1-9.4,29.8-9.4c24.4,0,45.9,17.3,51.1,41.1c0.4,1.9,2.1,3.2,3.9,3.2c0.2,0,0.4,0,0.7-0.1c3.1-0.5,5.8-0.8,8.4-0.8
				c28.3,0,51.3,23,51.3,51.3c0,28.3-23,51.3-51.3,51.3c-9.7,0-19.2-2.8-27.4-8c-0.7-0.4-1.4-0.6-2.1-0.6c-1.2,0-2.4,0.5-3.1,1.5
				C477.8,420,467,425.2,455.4,425.2z"/>
			<path fill="#B4EFEF" d="M369.5,255.3c18.7,0,35.9,10.1,45.1,26.5c1.1,2,3,3.4,5.2,3.9c0.6,0.1,1.2,0.2,1.8,0.2
				c1.6,0,3.2-0.5,4.6-1.4c8.1-5.7,17.7-8.7,27.6-8.7c11.1,0,21.9,3.9,30.5,10.8c8.5,6.9,14.4,16.5,16.7,27.1
				c0.8,3.7,4.1,6.3,7.8,6.3c0.4,0,0.9,0,1.3-0.1c2.9-0.5,5.4-0.7,7.8-0.7c26.1,0,47.3,21.2,47.3,47.3c0,26.1-21.2,47.3-47.3,47.3
				c-8.9,0-17.7-2.6-25.3-7.4c-1.3-0.8-2.8-1.2-4.3-1.2c-2.4,0-4.7,1.1-6.3,3c-6.5,8.2-16.1,12.9-26.5,12.9c-9.4,0-18.5-4-24.9-11.1
				c-1.5-1.6-3.5-2.5-5.7-2.6c-0.1,0-0.2,0-0.3,0c-2.1,0-4.1,0.8-5.6,2.2c-7.6,7.4-17.7,11.4-28.3,11.4c-13.7,0-26.4-6.8-33.9-18.2
				c-1.3-1.9-3.3-3.2-5.6-3.5c-0.3,0-0.7-0.1-1-0.1c-1.9,0-3.8,0.7-5.3,2c-9.1,8.1-20.7,12.5-32.8,12.5c-27.3,0-49.5-22.2-49.5-49.5
				c0-12.9,4.9-25.1,13.9-34.3c8.9-9.2,20.9-14.6,33.7-15.1c4.3-0.2,7.7-3.7,7.7-8c0-0.1,0-0.2,0-0.3
				C317.9,278.4,341.1,255.3,369.5,255.3 M369.5,247.3c-32.9,0-59.6,26.7-59.6,59.6c0,0,0,0.1,0,0.1c-30.7,1.1-55.3,26.4-55.3,57.4
				c0,31.7,25.7,57.5,57.5,57.5c14.6,0,27.9-5.5,38.1-14.5c8.7,13.1,23.7,21.8,40.6,21.8c13.1,0,25-5.2,33.8-13.7
				c7.6,8.4,18.6,13.7,30.9,13.7c13.3,0,25.1-6.2,32.8-15.9c8.6,5.4,18.7,8.6,29.6,8.6c30.6,0,55.3-24.8,55.3-55.3
				c0-30.6-24.8-55.3-55.3-55.3c-3.1,0-6.1,0.3-9.1,0.8c-5.5-25.3-28-44.3-55-44.3c-12,0-23,3.8-32.1,10.1
				C411.3,259.7,391.8,247.3,369.5,247.3L369.5,247.3z"/>
		</g>
		<g>
			<path fill="#E3FFFE" d="M455.4,425.2c-10.6,0-20.7-4.5-27.9-12.4c-0.7-0.8-1.7-1.3-2.8-1.3c0,0-0.1,0-0.1,0c-1,0-2,0.4-2.8,1.1
				c-8.4,8.1-19.4,12.6-31,12.6c-15,0-28.9-7.5-37.3-20c-0.6-1-1.7-1.6-2.8-1.8c-0.2,0-0.3,0-0.5,0c-1,0-1.9,0.4-2.7,1
				c-9.8,8.7-22.4,13.5-35.4,13.5c-29.5,0-53.5-24-53.5-53.5c0-28.9,22.6-52.3,51.5-53.4c2.1-0.1,3.9-1.8,3.9-4c0-0.1,0-0.1,0-0.2
				c0.1-30.6,25-55.5,55.6-55.5c20.1,0,38.7,10.9,48.6,28.5c0.6,1,1.5,1.7,2.6,1.9c0.3,0.1,0.6,0.1,0.9,0.1c0.8,0,1.6-0.2,2.3-0.7
				c8.8-6.1,19.1-9.4,29.8-9.4c24.4,0,45.9,17.3,51.1,41.1c0.4,1.9,2.1,3.2,3.9,3.2c0.2,0,0.4,0,0.7-0.1c3.1-0.5,5.8-0.8,8.4-0.8
				c28.3,0,51.3,23,51.3,51.3c0,28.3-23,51.3-51.3,51.3c-9.7,0-19.2-2.8-27.4-8c-0.7-0.4-1.4-0.6-2.1-0.6c-1.2,0-2.4,0.5-3.1,1.5
				C477.8,420,467,425.2,455.4,425.2z"/>
			<path fill="#A0D8D6" d="M369.5,255.3c18.7,0,35.9,10.1,45.1,26.5c1.1,2,3,3.4,5.2,3.9c0.6,0.1,1.2,0.2,1.8,0.2
				c1.6,0,3.2-0.5,4.6-1.4c8.1-5.7,17.7-8.7,27.6-8.7c11.1,0,21.9,3.9,30.5,10.8c8.5,6.9,14.4,16.5,16.7,27.1
				c0.8,3.7,4.1,6.3,7.8,6.3c0.4,0,0.9,0,1.3-0.1c2.9-0.5,5.4-0.7,7.8-0.7c26.1,0,47.3,21.2,47.3,47.3c0,26.1-21.2,47.3-47.3,47.3
				c-8.9,0-17.7-2.6-25.3-7.4c-1.3-0.8-2.8-1.2-4.3-1.2c-2.4,0-4.7,1.1-6.3,3c-6.5,8.2-16.1,12.9-26.5,12.9c-9.4,0-18.5-4-24.9-11.1
				c-1.5-1.6-3.5-2.5-5.7-2.6c-0.1,0-0.2,0-0.3,0c-2.1,0-4.1,0.8-5.6,2.2c-7.6,7.4-17.7,11.4-28.3,11.4c-13.7,0-26.4-6.8-33.9-18.2
				c-1.3-1.9-3.3-3.2-5.6-3.5c-0.3,0-0.7-0.1-1-0.1c-1.9,0-3.8,0.7-5.3,2c-9.1,8.1-20.7,12.5-32.8,12.5c-27.3,0-49.5-22.2-49.5-49.5
				c0-12.9,4.9-25.1,13.9-34.3c8.9-9.2,20.9-14.6,33.7-15.1c4.3-0.2,7.7-3.7,7.7-8c0-0.1,0-0.2,0-0.3
				C317.9,278.4,341.1,255.3,369.5,255.3 M369.5,247.3c-32.9,0-59.6,26.7-59.6,59.6c0,0,0,0.1,0,0.1c-30.7,1.1-55.3,26.4-55.3,57.4
				c0,31.7,25.7,57.5,57.5,57.5c14.6,0,27.9-5.5,38.1-14.5c8.7,13.1,23.7,21.8,40.6,21.8c13.1,0,25-5.2,33.8-13.7
				c7.6,8.4,18.6,13.7,30.9,13.7c13.3,0,25.1-6.2,32.8-15.9c8.6,5.4,18.7,8.6,29.6,8.6c30.6,0,55.3-24.8,55.3-55.3
				c0-30.6-24.8-55.3-55.3-55.3c-3.1,0-6.1,0.3-9.1,0.8c-5.5-25.3-28-44.3-55-44.3c-12,0-23,3.8-32.1,10.1
				C411.3,259.7,391.8,247.3,369.5,247.3L369.5,247.3z"/>
		</g>
	</g>
	<circle fill="#F79B94" cx="481.1" cy="321.4" r="5.5"/>
	<circle fill="#89C6C4" cx="366.5" cy="140.9" r="5.5"/>
	<circle fill="#F79B94" cx="66" cy="365.6" r="5.5"/>
	<circle fill="none" stroke="#F79B94" stroke-width="5" stroke-miterlimit="10" cx="420.2" cy="211.3" r="7.3"/>
	<circle fill="#86C4C2" cx="60.5" cy="231.5" r="7.3"/>
	<circle fill="none" stroke="#F79B94" stroke-width="5" stroke-miterlimit="10" cx="71.5" cy="429.2" r="7.3"/>
	<path fill="#F79B94" d="M416.4,397.5h-4v-4c0-2.1-1.7-3.9-3.9-3.9c-2.1,0-3.9,1.7-3.9,3.9v4h-4c-2.1,0-3.9,1.7-3.9,3.9
		c0,2.1,1.7,3.9,3.9,3.9h4v4c0,2.1,1.7,3.9,3.9,3.9c2.1,0,3.9-1.7,3.9-3.9v-4h4c2.1,0,3.9-1.7,3.9-3.9
		C420.2,399.3,418.5,397.5,416.4,397.5z"/>
	<path fill="#F79B94" d="M227.9,125.3h-4v-4c0-2.1-1.7-3.9-3.9-3.9c-2.1,0-3.9,1.7-3.9,3.9v4h-4c-2.1,0-3.9,1.7-3.9,3.9
		c0,2.1,1.7,3.9,3.9,3.9h4v4c0,2.1,1.7,3.9,3.9,3.9c2.1,0,3.9-1.7,3.9-3.9v-4h4c2.1,0,3.9-1.7,3.9-3.9
		C231.8,127,230,125.3,227.9,125.3z"/>
	<path fill="#89C6C4" d="M137,280.8l-2.8-2.8l2.8-2.8c1.5-1.5,1.5-4,0-5.5c-1.5-1.5-4-1.5-5.5,0l-2.8,2.8l-2.8-2.8
		c-1.5-1.5-4-1.5-5.5,0c-1.5,1.5-1.5,4,0,5.5l2.8,2.8l-2.8,2.8c-1.5,1.5-1.5,4,0,5.5c1.5,1.5,4,1.5,5.5,0l2.8-2.8l2.8,2.8
		c1.5,1.5,4,1.5,5.5,0C138.5,284.8,138.5,282.3,137,280.8z"/>
	<path fill="#89C6C4" d="M598.9,380.9l-2.8-2.8l2.8-2.8c1.5-1.5,1.5-4,0-5.5c-1.5-1.5-4-1.5-5.5,0l-2.8,2.8l-2.8-2.8
		c-1.5-1.5-4-1.5-5.5,0c-1.5,1.5-1.5,4,0,5.5l2.8,2.8l-2.8,2.8c-1.5,1.5-1.5,4,0,5.5c1.5,1.5,4,1.5,5.5,0l2.8-2.8l2.8,2.8
		c1.5,1.5,4,1.5,5.5,0C600.4,384.9,600.4,382.4,598.9,380.9z"/>
	<g>
		<circle fill="#F79B94" cx="300.7" cy="297.3" r="101.3"/>
		<path fill="#CE7672" d="M375.1,228.5c7.9,14.5,12.5,31.1,12.5,48.7c0,56-45.4,101.3-101.3,101.3c-29.4,0-55.9-12.6-74.4-32.6
			c17.2,31.4,50.6,52.6,88.9,52.6c56,0,101.3-45.4,101.3-101.3C402.1,270.7,391.8,246.6,375.1,228.5z"/>
		<g>
			<path fill="#B4EFEF" d="M236.9,383.9L222,371.1l-13.5-14.3L117.4,448c-6.7,6.7-8.4,16.5-5.2,24.8c2.5,0.5,7.7,2.2,11.6,7.6
				c5.3,7.3,24.8-5.5,24.8-5.5L236.9,383.9z"/>
			<path fill="#86C4C2" d="M230.1,378.1l-95.8,94.8c-3.3,3.2-7.2,5.3-11.4,6.3c0.3,0.3,0.6,0.7,0.9,1.1c5.3,7.3,24.8-5.5,24.8-5.5
				l88.4-90.9L230.1,378.1z"/>
		</g>
		<g>
			<g>
				
					<path fill="none" stroke="#5B5B5B" stroke-width="10" stroke-linecap="round" stroke-linejoin="round" stroke-miterlimit="10" d="
					M380.6,357.4c-16.8,21.9-42,37.3-71.6,41c-18,2.2-35.4-0.1-51.2-6.1c-17.5-6.7-33-17.8-44.8-32.3
					c-12.3-15.1-20.7-33.7-23.3-54.4c-2.4-19,0.4-37.4,7.2-53.9c4.9-11.9,12-22.9,20.7-32.3c10.4-11.1,23.2-20.1,37.7-26
					c8.5-3.5,17.6-5.9,27.2-7.1c58.6-7.3,112,34.3,119.3,92.9"/>
				
					<path fill="none" stroke="#5B5B5B" stroke-width="10" stroke-linecap="round" stroke-linejoin="round" stroke-miterlimit="10" d="
					M392.1,338.7c-0.5,1-0.9,1.9-1.4,2.8"/>
				
					<path fill="none" stroke="#5B5B5B" stroke-width="10" stroke-linecap="round" stroke-linejoin="round" stroke-miterlimit="10" d="
					M402,304.9c-0.3,2.6-0.7,5.1-1.2,7.7c-0.6,3.3-1.4,6.6-2.4,9.8"/>
			</g>
			<g>
				
					<path fill="none" stroke="#5B5B5B" stroke-width="10" stroke-linecap="round" stroke-linejoin="round" stroke-miterlimit="10" d="
					M229.8,279.8c0.9-4.5,2.2-8.8,3.9-13c3.1-7.5,7.5-14.3,13-20.2c6.5-7,14.5-12.6,23.6-16.3c5.3-2.2,11.1-3.7,17.1-4.4"/>
				
					<path fill="none" stroke="#5B5B5B" stroke-width="10" stroke-linecap="round" stroke-linejoin="round" stroke-miterlimit="10" d="
					M229.2,300.6c-0.3-2.8-0.5-5.6-0.5-8.3"/>
			</g>
			
				<path fill="none" stroke="#5B5B5B" stroke-width="10" stroke-linecap="round" stroke-linejoin="round" stroke-miterlimit="10" d="
				M155.9,397.3l-41.2,41.2c-9.6,9.6-9.6,25.3,0,34.9l0,0c9.6,9.6,25.3,9.6,34.9,0l85.6-85.6"/>
			
				<line fill="none" stroke="#5B5B5B" stroke-width="10" stroke-linecap="round" stroke-linejoin="round" stroke-miterlimit="10" x1="200.3" y1="353" x2="181.9" y2="371.3"/>
			
				<line fill="none" stroke="#5B5B5B" stroke-width="10" stroke-linecap="round" stroke-linejoin="round" stroke-miterlimit="10" x1="169.9" y1="383.3" x2="168.1" y2="385.1"/>
		</g>
	</g>
</g>
</svg>
