<svg xmlns="http://www.w3.org/2000/svg" data-name="Layer 1" viewBox="0 0 722 95.85">
  <path fill="none" stroke="#d6d6d6" stroke-linecap="round" stroke-linejoin="round" stroke-width="1.3" d="M271.38 38.95h38.55V95.2h-78.74V48.51h30.34"/>
  <path fill="none" stroke="#d6d6d6" stroke-linecap="round" stroke-linejoin="round" stroke-width="1.5" d="M271.38 39.08v27.75h-9.85V48.62m-23.17 9.16h6.15v6.15h-6.15zm11.79-5.33h6.15v6.15h-6.15zm45.62 11.4h-6.15V57.7h6.15zm-11.79-7.92h-6.15v-6.15h6.15z"/>
  <path fill="none" stroke="#d6d6d6" stroke-linecap="round" stroke-linejoin="round" stroke-width="1.3" d="M328.84 41.77h6.94v6.94h-6.94zm13.29 10.52h6.94v6.94h-6.94z"/>
  <path fill="none" stroke="#d6d6d6" stroke-linecap="round" stroke-linejoin="round" stroke-width="1.3" d="M362.38 34.87H375V95.2h-53.2V34.87h12.62m0-.33v-7.63h27.96v7.63M94.11 69.71h5.12v5.12h-5.12zm9.81 7.76h5.12v5.12h-5.12z"/>
  <path fill="none" stroke="#d6d6d6" stroke-linecap="round" stroke-linejoin="round" stroke-width="1.3" d="M118 64.33h9.32V95.2H88.05V64.33h9.31m0 0V58.7H118v5.63m88.27-16.25h4.51v4.53h-4.51zm-13.09 22.11h6.15v6.17h-6.15z"/>
  <path fill="none" stroke="#d6d6d6" stroke-linecap="round" stroke-linejoin="round" stroke-width="1.3" d="M186.83 66.17h30.55V95.2h-30.55zm19.44-9.06h4.51v4.53h-4.51z"/>
  <path fill="none" stroke="#d6d6d6" stroke-linecap="round" stroke-linejoin="round" stroke-width="1.3" d="M202.75 40.29h14.63v25.89h-14.63zM610 83.47h-6.13v-6.15H610z"/>
  <path fill="none" stroke="#d6d6d6" stroke-linecap="round" stroke-linejoin="round" stroke-width="1.3" d="M616.38 95.2h-30.55V73.28h30.55zm-22.01-36.9h-4.51v-4.51h4.51z"/>
  <path fill="none" stroke="#d6d6d6" stroke-linecap="round" stroke-linejoin="round" stroke-width="1.3" d="M600.45 73.29h-14.63V48.95h14.63zM555.42 60.3h6.73v6.73h-6.73zm-11.71 10.85h6.73v6.73h-6.73zm-14.96.09h-6.73v-6.73h6.73zm-11.3-9.57h-6.73v-6.73h6.73z"/>
  <path fill="none" stroke="#d6d6d6" stroke-linecap="round" stroke-linejoin="round" stroke-width="1.3" d="M542.22 65.97V48.28h-37.55V95.2h37.55m6.57 0h27.34v-42h-27.34v12.77"/>
  <path fill="none" stroke="#d6d6d6" stroke-linecap="round" stroke-linejoin="round" stroke-width="1.202" d="M548.79 94.98v.22h-11.73V66.04h11.73"/>
  <path fill="none" stroke="#d6d6d6" stroke-linecap="round" stroke-linejoin="round" stroke-width="1.3" d="M54.68 66.33h5.19v5.19h-5.19zm8.71-7.39h5.19v5.19h-5.19z"/>
  <path fill="none" stroke="#d6d6d6" stroke-linecap="round" stroke-linejoin="round" stroke-width="1.3" d="M51.69 95.2h21.09V55.1H51.69v16.99m0 22.92v.19h-9.06V71.89h9.06M456.15 48.1h5.19v5.19h-5.19zm0 10.1h5.19v5.19h-5.19zm0 10.1h5.19v5.19h-5.19zm19.69-4.64h6.15v6.15h-6.15z"/>
  <path fill="none" stroke="#d6d6d6" stroke-linecap="round" stroke-linejoin="round" stroke-width="1.194" d="M469.45 95.2h-30.9V44.37h30.9z"/>
  <path fill="none" stroke="#d6d6d6" stroke-linecap="round" stroke-linejoin="round" stroke-width="1.3" d="M465.53 44.04h-23.07v-8h23.07zm24.15 51.16h-20.1V58.48h20.1zm-71.22-33.08h-7.14v-7.14h7.14zm10.15 9.58h-7.14v-7.14h7.14z"/>
  <path fill="none" stroke="#d6d6d6" stroke-linecap="round" stroke-linejoin="round" stroke-width="1.3" d="M423.43 51.39h10.24V95.2h-43.41V51.39h10.24m0 0v-6.76h22.93v6.76M21.18 80.94h-5.19v-5.19h5.19z"/>
  <path fill="none" stroke="#d6d6d6" stroke-linecap="round" stroke-linejoin="round" stroke-width="1.3" d="M24.79 73.14h7.44V95.2H.67V73.14h7.45m0-.17v-4.92h16.67v4.92m689.65 7.97h-5.19v-5.19h5.19z"/>
  <path fill="none" stroke="#d6d6d6" stroke-linecap="round" stroke-linejoin="round" stroke-width="1.3" d="M713.9 73.14h7.45V95.2h-31.56V73.14h7.45m0-.17v-4.92h16.66v4.92M167.23 49.64h-5.19v-5.19h5.19zm0 10.1h-5.19v-5.19h5.19zm0 10.1h-5.19v-5.19h5.19zm-13.57.23V52.66h2.48"/>
  <path fill="none" stroke="#d6d6d6" stroke-linecap="round" stroke-linejoin="round" stroke-width="1.3" d="M172.82 52.66h2.79V95.2h-21.95m0 0h-15.9V70.07h15.9m2.48-17.41V35.53h16.68v17.13"/>
  <path fill="none" stroke="#d6d6d6" stroke-miterlimit="10" stroke-width=".59" d="M141.81 49.43a10.57 10.57 0 1 0-6.23 2 10.43 10.43 0 0 0 3.59-.64 7.41 7.41 0 0 0 5.66.85 5.49 5.49 0 0 1-3.02-2.21z"/>
  <path fill="none" stroke="#d6d6d6" stroke-miterlimit="10" stroke-width=".82" d="M388.16 35.54a15 15 0 0 1-5.91-12 14.38 14.38 0 1 1 28.75 0 14.65 14.65 0 0 1-14.38 14.89 13.79 13.79 0 0 1-4.86-.9 9.8 9.8 0 0 1-7.7 1.19 7.44 7.44 0 0 0 4.1-3.18z"/>
  <path fill="none" stroke="#d6d6d6" stroke-miterlimit="10" stroke-width=".676" d="M478.74 43.52a12.11 12.11 0 1 1 7.14 2.34 11.88 11.88 0 0 1-4.11-.73 8.5 8.5 0 0 1-6.49 1 6.23 6.23 0 0 0 3.46-2.61z"/>
  <path fill="#d6d6d6" d="M135.67 33.39a4.88 4.88 0 0 0-4.86 4.9c0 4.67 4.86 10.77 4.86 10.77s4.87-6.1 4.87-10.77a4.88 4.88 0 0 0-4.86-4.9zm0 7.27a2.32 2.32 0 1 1 2.33-2.33 2.31 2.31 0 0 1-2.3 2.31zM486 26.09a4.9 4.9 0 0 0-4.89 4.91c0 4.69 4.89 10.81 4.89 10.81s4.88-6.12 4.88-10.81a4.9 4.9 0 0 0-4.88-4.91zm0 7.3a2.3 2.3 0 0 1-2.3-2.32 2.32 2.32 0 1 1 2.3 2.32z"/>
  <path fill="none" stroke="#d6d6d6" stroke-miterlimit="10" stroke-width=".622" d="M263.06 38.28a11.15 11.15 0 1 0-6.57 2.15 11 11 0 0 0 3.78-.67 7.82 7.82 0 0 0 6 .89 5.74 5.74 0 0 1-3.21-2.37z"/>
  <path fill="#d6d6d6" d="M256.65 22.67a4.41 4.41 0 0 0-4.39 4.42c0 4.22 4.39 9.72 4.39 9.72s4.39-5.5 4.39-9.72a4.42 4.42 0 0 0-4.39-4.42zm0 6.56a2.09 2.09 0 1 1 2.07-2.1 2.06 2.06 0 0 1-2.07 2.08zm143.87-9.41a2.12 2.12 0 0 1 .1.77 4.8 4.8 0 0 1-.19 1h4.78v-1.77zm-5 0H388v1.73h5.92a8.77 8.77 0 0 1 1.6-1.73m3.33 1.18a.49.49 0 0 0-.35-.15 2 2 0 0 0-1.14.26 5 5 0 0 0-1.65 1.42 5.82 5.82 0 0 0-1.19 2.43 2.41 2.41 0 0 0 0 1 1.22 1.22 0 0 0 1.22 1 5.85 5.85 0 0 0 2.54-.56 8 8 0 0 0 1-.52 1.4 1.4 0 0 1 .17-.09.17.17 0 0 1 .23.14.71.71 0 0 1-.28.71 7.56 7.56 0 0 1-3.1 1.35l-.3.01h-.44a2.3 2.3 0 0 1-1.88-.81 2.65 2.65 0 0 1-.47-1.15 4.4 4.4 0 0 1 .37-2.6 8.57 8.57 0 0 1 3-3.67 3.25 3.25 0 0 1 1.67-.6 2.05 2.05 0 0 1 1 .13 1.16 1.16 0 0 1 .75 1.23 3 3 0 0 1-.72 1.8 1.9 1.9 0 0 1-1.12.66.85.85 0 0 1-.5-.07.54.54 0 0 1-.28-.75 1.53 1.53 0 0 1 .52-.58 3.63 3.63 0 0 1 .93-.45c.14 0 .11-.1.05-.18"/>
  <path fill="#d6d6d6" d="M403.13 17.14H390a2.81 2.81 0 0 0-2.85 2.86v7.29a2.81 2.81 0 0 0 2.85 2.77h13.17a2.81 2.81 0 0 0 2.81-2.82V20a2.81 2.81 0 0 0-2.81-2.81m0 1.07a1.74 1.74 0 0 1 1.7 1.74v7.29a1.74 1.74 0 0 1-1.74 1.71H390a1.74 1.74 0 0 1-1.73-1.74V20a1.74 1.74 0 0 1 1.73-1.79h13.17"/>
  <path fill="none" stroke="#d6d6d6" stroke-miterlimit="10" stroke-width=".765" d="M607 48.86a12.49 12.49 0 0 1-4.9-10 11.93 11.93 0 1 1 23.85 0A12.14 12.14 0 0 1 614 51.24a11.54 11.54 0 0 1-4-.74 8.1 8.1 0 0 1-6.39 1 6.16 6.16 0 0 0 3.39-2.64z"/>
  <path fill="#d6d6d6" d="M617.22 30.54H611a1.52 1.52 0 0 0-1.51 1.51v13.18a1.52 1.52 0 0 0 1.51 1.51h6.21a1.52 1.52 0 0 0 1.51-1.51V32.05a1.52 1.52 0 0 0-1.5-1.51zm-3.1 15.71a.76.76 0 1 1 .75-.75.76.76 0 0 1-.75.75zm3.8-2.31a.33.33 0 0 1-.32.32h-7a.33.33 0 0 1-.32-.32V32.46a.32.32 0 0 1 .32-.32h7a.32.32 0 0 1 .32.32z"/>
  <g data-name="g28">
    <path fill="#d6d6d6" d="M615.56 36.69a.32.32 0 0 0-.22-.1 1.39 1.39 0 0 0-.72.17 3 3 0 0 0-1 .89 3.74 3.74 0 0 0-.75 1.52 1.44 1.44 0 0 0 0 .62.76.76 0 0 0 .76.63 3.66 3.66 0 0 0 1.59-.36 5.07 5.07 0 0 0 .61-.32l.1-.05a.1.1 0 0 1 .14.08.42.42 0 0 1-.18.44 4.58 4.58 0 0 1-1.94.85h-.44a1.44 1.44 0 0 1-1.18-.51 1.58 1.58 0 0 1-.3-.72 2.77 2.77 0 0 1 .24-1.63 5.31 5.31 0 0 1 1.9-2.3 2.15 2.15 0 0 1 1-.38 1.35 1.35 0 0 1 .6.09.72.72 0 0 1 .47.77 1.91 1.91 0 0 1-.45 1.13 1.23 1.23 0 0 1-.7.41.51.51 0 0 1-.32-.05.32.32 0 0 1-.17-.46.91.91 0 0 1 .33-.37 2.23 2.23 0 0 1 .58-.28c.08 0 .07-.06 0-.11" data-name="path30"/>
  </g>
  <path fill="#d6d6d6" d="M213.31 26a3 3 0 0 0-2.64 1.43A3 3 0 0 0 208 26c-1.77 0-4.16 1.34-3.07 5 1.24 3.59 5.73 5.7 5.73 5.7s4.48-2.11 5.72-5.7-1.29-5-3.07-5zm135.1-26a7.61 7.61 0 0 0-7.59 7.63c0 7.29 7.59 16.8 7.59 16.8S356 14.92 356 7.63A7.61 7.61 0 0 0 348.41 0z"/>
  <g data-name="g28">
    <path fill="#fff" d="M351.13 5.1a.59.59 0 0 0-.43-.19 2.65 2.65 0 0 0-1.44.32A6.63 6.63 0 0 0 347.18 7a7.42 7.42 0 0 0-1.49 3.06 2.93 2.93 0 0 0 0 1.25 1.53 1.53 0 0 0 1.54 1.25 7.32 7.32 0 0 0 3.19-.71 8.3 8.3 0 0 0 1.21-.65 1.39 1.39 0 0 1 .21-.11.2.2 0 0 1 .28.17.85.85 0 0 1-.35.89 9.29 9.29 0 0 1-3.9 1.7l-.34.05-.53.1a2.87 2.87 0 0 1-2.37-1 3.15 3.15 0 0 1-.59-1.44 5.42 5.42 0 0 1 .47-3.27 10.71 10.71 0 0 1 3.82-4.63 4.19 4.19 0 0 1 2.09-.75 2.58 2.58 0 0 1 1.2.17 1.44 1.44 0 0 1 .94 1.54 3.7 3.7 0 0 1-.9 2.27 2.41 2.41 0 0 1-1.41.83 1.06 1.06 0 0 1-.63-.1.66.66 0 0 1-.35-.93 1.79 1.79 0 0 1 .66-.73 3.89 3.89 0 0 1 1.16-.56c.18-.06.15-.13.06-.23" data-name="path30"/>
  </g>
  <path fill="none" stroke="#d6d6d6" stroke-linecap="round" stroke-linejoin="round" stroke-width="1.3" d="M639.45 58h-4.51v-4.51h4.51zm6.41 8.33h-4.51v-4.51h4.51zm27.74.6h-4.51v-4.51h4.51zm0 8.67h-4.51v-4.51h4.51z"/>
  <path fill="none" stroke="#d6d6d6" stroke-linecap="round" stroke-linejoin="round" stroke-width="1.3" d="M663.43 95.2h13.81V60.41h-1.21m-12.6 14v-14h1.23m0 0v-4.52h11.37v4.52m-26.63-8.37h2.24v22.37m0 20.79h-20.41V52.04h2.24"/>
  <path fill="none" stroke="#d6d6d6" stroke-linecap="round" stroke-linejoin="round" stroke-width="1.3" d="M651.08 95.2h14.7V74.41h-14.14m-18.17-22.37v-5.46h15.93v5.46"/>
  <path fill="none" stroke="#d6d6d6" stroke-miterlimit="10" stroke-width="1.3" d="M280 30.08h21.33v8.85H280z"/>
  <path fill="#fff" stroke="#d6d6d6" stroke-linecap="round" stroke-linejoin="round" stroke-width="1.3" d="M299.61 85.13a8.61 8.61 0 0 0-4.94 1.54c-.77-4.17-4-7.31-7.74-7.31a7.9 7.9 0 0 0-7.09 5.18A7.9 7.9 0 0 0 267 89.22a9.62 9.62 0 0 0-13.77 6h54.92a8.36 8.36 0 0 0 .13-1.43 8.64 8.64 0 0 0-8.67-8.66zm193.23.38a8.28 8.28 0 0 1 4.75 1.49c.75-4 3.82-7 7.45-7a7.61 7.61 0 0 1 6.83 5 7.5 7.5 0 0 1 4.91-1.8 7.59 7.59 0 0 1 7.47 6.3 9.23 9.23 0 0 1 13.25 5.7h-52.85a7.78 7.78 0 0 1-.13-1.38 8.32 8.32 0 0 1 8.32-8.31zM209.81 88.6h-1.25c-1.47-3.9-6.83-6.8-13.21-6.8a18.45 18.45 0 0 0-8.26 1.83 9.68 9.68 0 0 0-17.45.22 9 9 0 0 0-4.5-1.2 9.46 9.46 0 0 0-8.47 5.53c-.81-.08-1.67-.12-2.52-.12-6.93 0-12.53 2.74-12.53 6.09a2.91 2.91 0 0 0 .18 1h79a2.74 2.74 0 0 0 .06-.59c-.04-3.26-4.97-5.96-11.05-5.96zm165.32-4.81a4.63 4.63 0 0 0-2.95 1.14 10.16 10.16 0 0 0 .32-2.42c0-5.15-3.66-9.33-8.17-9.33a7.37 7.37 0 0 0-4.21 1.37c-.92-4.39-3.53-7.58-6.64-7.58-3.29 0-6 3.57-6.79 8.37a4.92 4.92 0 0 0-3-1.14c-3.56 0-6.44 4.14-6.44 9.25v.33h-.9a9.49 9.49 0 0 0-9.35 9.69 9.78 9.78 0 0 0 .14 1.73h54.49a4.67 4.67 0 0 0 .07-1c.03-5.76-2.92-10.41-6.57-10.41zm82.96-2.24a10.63 10.63 0 0 0-6.17 2c-.62-5.44-4.67-9.65-9.58-9.65a9.34 9.34 0 0 0-7.92 4.8 11 11 0 0 0-2.45-.28 10.86 10.86 0 0 0-10.72 8.64 13.72 13.72 0 0 0-9.19-3.48 13.93 13.93 0 0 0-13.73 11.62h70.87a14.58 14.58 0 0 0 .07-1.49c.04-6.71-4.96-12.16-11.18-12.16zM72.31 83.87a8.78 8.78 0 0 0-5.11 1.68c-.52-4.52-3.88-8-8-8a7.74 7.74 0 0 0-6.57 4 9.18 9.18 0 0 0-2-.24 9 9 0 0 0-8.88 7.18 11.42 11.42 0 0 0-7.63-2.89 11.56 11.56 0 0 0-11.38 9.6h58.83a12.41 12.41 0 0 0 .06-1.2c0-5.61-4.15-10.13-9.32-10.13z"/>
  <path fill="#fff" stroke="#d6d6d6" stroke-linecap="round" stroke-linejoin="round" stroke-width="1.203" d="M121.92 82c0-3.28-2-13.12-4.43-13.12s-4.43 9.84-4.43 13.12c0 2.68 1.35 4.93 3.18 5.66v7.54h2.5v-7.53c1.83-.73 3.18-2.98 3.18-5.67z"/>
  <path fill="#fff" stroke="#d6d6d6" stroke-linecap="round" stroke-linejoin="round" stroke-width="1.3" d="M342.65 79.45c0-3.91-2.37-15.65-5.28-15.65s-5.29 11.74-5.29 15.65c0 3.21 1.61 5.89 3.79 6.76v9h3v-9c2.18-.87 3.78-3.55 3.78-6.76zM395.46 83c0-3-1.82-12.1-4.08-12.1S387.3 80 387.3 83c0 2.48 1.24 4.55 2.93 5.22v7h2.31v-7c1.69-.64 2.92-2.71 2.92-5.22zM75.63 79.48a3.36 3.36 0 0 0 .31-1.38 3.27 3.27 0 0 0-3.27-3.28 3 3 0 0 0-.91.15A3.38 3.38 0 1 0 65 75a3 3 0 0 0-.91-.15 3.28 3.28 0 0 0-3.27 3.28 3.21 3.21 0 0 0 .32 1.38 3.26 3.26 0 0 0 1.57 6.13 2.89 2.89 0 0 0 4.58 1.31v8.25h2.12v-8.06a2.89 2.89 0 0 0 4.28-1.56h.32a3.26 3.26 0 0 0 1.58-6.13zM505.71 76a4 4 0 0 0-3.62-5.7 3.74 3.74 0 0 0-1.11.18 4.13 4.13 0 1 0-8.25 0 3.69 3.69 0 0 0-1.11-.18A4 4 0 0 0 488 76a4 4 0 0 0 1.93 7.5 3.58 3.58 0 0 0 3.37 2.41 3.53 3.53 0 0 0 2.24-.81v10.1h2.59v-9.87a3.52 3.52 0 0 0 1.87.54 3.58 3.58 0 0 0 3.38-2.45 2.45 2.45 0 0 0 .39 0 4 4 0 0 0 1.92-7.5zm-252.17 1.67a3.64 3.64 0 0 0-3.3-5.2 3.68 3.68 0 0 0-1 .16 3.77 3.77 0 1 0-7.52 0 3.74 3.74 0 0 0-1-.16 3.64 3.64 0 0 0-3.3 5.2 3.64 3.64 0 0 0 1.75 6.83 3.22 3.22 0 0 0 5.12 1.5v9.2h2.36v-9a3.23 3.23 0 0 0 4.78-1.74h.35a3.64 3.64 0 0 0 1.76-6.83zM632.06 90h-1c-1.16-3.07-5.39-5.37-10.43-5.37a14.5 14.5 0 0 0-6.52 1.45 7.64 7.64 0 0 0-13.78.17 7.05 7.05 0 0 0-3.55-.94 7.47 7.47 0 0 0-6.69 4.36 18.54 18.54 0 0 0-2-.1c-5.47 0-9.89 2.17-9.89 4.81a2.4 2.4 0 0 0 .14.8h62.36a2.24 2.24 0 0 0 0-.46c.05-2.6-3.85-4.72-8.64-4.72zm-64.19-10.55c0-3.91-2.36-15.65-5.28-15.65s-5.29 11.74-5.29 15.65c0 3.21 1.61 5.89 3.79 6.76v9h3v-9c2.18-.87 3.78-3.55 3.78-6.76zm131.25 5.24A9 9 0 0 0 694 86.3c-.8-4.36-4.13-7.63-8.07-7.63a8.26 8.26 0 0 0-7.41 5.41 8.14 8.14 0 0 0-5.32-1.94 8.23 8.23 0 0 0-8.15 6.86 10 10 0 0 0-14.37 6.24H708a8.2 8.2 0 0 0 .14-1.5 9 9 0 0 0-9.02-9.05z"/>
  <path fill="#fff" stroke="#d6d6d6" stroke-linecap="round" stroke-linejoin="round" stroke-width="1.3" d="M672.39 79.48a3.21 3.21 0 0 0 .32-1.38 3.28 3.28 0 0 0-3.27-3.28 3 3 0 0 0-.91.15 3.38 3.38 0 1 0-6.74 0 3 3 0 0 0-.91-.15 3.28 3.28 0 0 0-3.27 3.28 3.36 3.36 0 0 0 .31 1.38 3.26 3.26 0 0 0 1.58 6.13 2.89 2.89 0 0 0 4.58 1.31v8.28h2.12v-8.06a2.89 2.89 0 0 0 4.28-1.56h.32a3.26 3.26 0 0 0 1.57-6.13z"/>
  <path fill="#fff" stroke="#d6d6d6" stroke-miterlimit="10" stroke-width="1.3" d="M513.28 35.29h20.33v12.67h-20.33z"/>
  <path fill="none" stroke="#d6d6d6" stroke-linecap="round" stroke-linejoin="round" stroke-width="1.3" d="M530.2 44.58h-6.73v-6.73h6.73z"/>
  <path fill="none" stroke="#d6d6d6" stroke-miterlimit="10" stroke-width="1.3" d="M0 95.2h722"/>
</svg>
