<svg xmlns="http://www.w3.org/2000/svg" data-name="Layer 1" viewBox="0 0 730.5 645.36">
  <circle cx="57.61" cy="85.6" r="5.5" fill="#f79b94"/>
  <circle cx="5.5" cy="329" r="5.5" fill="#f79b94"/>
  <circle cx="701.5" cy="478.5" r="12.37" fill="#f79b94"/>
  <path fill="#b4efef" d="M664.15 353.7c10.45 0 19-5.53 19-12.29s-8.55-12.29-19-12.29-19-5.4-19-12 3.82-12 8.48-12 8.47-5.53 8.47-12.29v-24.46c0-6.68-7.07-12.15-15.71-12.15s-15.72-5.4-15.72-12v-24.3c0-6.6 5.1-12 11.34-12s11.34-5.47 11.34-12.15v-24.6c0-6.68-13.5-12.15-30-12.15h-5.7c-16.5 0-30-5.46-30-12.15a12.36 12.36 0 0 0-12.5-12.15 12.29 12.29 0 0 1-12.5-12V98.28c0-6.69-11.19-12.15-24.87-12.15S512.92 80.66 512.92 74s-9.92-12.15-22-12.15-22-5.47-22-12.15-7.92-12.17-17.44-12.17-17.37-6.26-17.37-13.91-6-13.9-13.33-13.9H314.6c-7.34 0-13.34 6.25-13.34 13.9a13.94 13.94 0 0 1-13.9 13.91c-7.65 0-13.9 5.47-13.9 12.15s-10.94 12.15-24.3 12.15-24.3 5.46-24.3 12.15-10.2 12.15-22.67 12.15-22.66 5.53-22.66 12.29.54 12.29 1.19 12.29 1.19 5.4 1.19 12-7.91 12-17.59 12-17.58 5.47-17.58 12.15-13.5 12.15-30 12.15h-.1c-16.5 0-30 5.47-30 12.15s6.75 12.22 15 12.29 15 5.55 15 12.15-10.36 12-23 12-23 5.47-23 12.15S58.51 231.9 43.7 231.9s-26.95 5.53-26.95 12.29 11.25 12.29 25 12.29 25 5.41 25 12-7.75 12-17.23 12-17.24 5.53-17.24 12.29 13.5 12.29 30 12.29h2c16.5 0 30 5.41 30 12s-8.76 12-19.46 12-19.47 5.53-19.47 12.29 4.75 12.29 10.55 12.29 10.56 5.47 10.56 12.15v24.15A11.91 11.91 0 0 1 64.8 402c-6.45 0-11.73 5.53-11.73 12.29s6.1 12.29 13.56 12.29 13.56 5.47 13.56 12.15 13.5 12.15 30 12.15h11c16.5 0 30 5.46 30 12.15s-6 12.15-13.29 12.15-13.29 5.4-13.29 12-6.94 12-15.42 12-15.41 5.53-15.41 12.29 9.07 12.3 20.16 12.3 20.17 5.46 20.17 12.14 9.49 12.15 21.09 12.15 21.08 5.47 21.08 12.15 9 12.15 19.92 12.15 19.92 5.47 19.92 12.15 7.5 12.15 16.67 12.15h21.59c2.7 0 4.92 4.7 4.92 10.43s7.81 10.43 17.36 10.43S294 623.81 294 631.45s6 13.91 13.33 13.91h106.19c7.34 0 13.34-6.26 13.34-13.91a13.94 13.94 0 0 1 13.9-13.9c7.64 0 13.9-4.69 13.9-10.43s3.16-10.43 7-10.43h27.18c11.09 0 20.16-5.46 20.16-12.15s12.42-12.15 27.59-12.15 27.59-5.46 27.59-12.15 7.71-12.15 17.13-12.15 17.13-5.46 17.13-12.15v-24.29c0-6.69 5-12.15 11.13-12.15s11.12-5.47 11.12-12.15v-24.44c0-6.61 6.64-12 14.76-12s14.77-5.47 14.77-12.15v-24.45c0-6.61 4.19-12 9.32-12s9.33-5.53 9.33-12.29a12.12 12.12 0 0 0-11.87-12.3 12 12 0 0 1-11.87-12c.02-6.62 8.57-12.02 19.02-12.02z"/>
  <rect width="39" height="12.87" x="96.76" y="585.18" fill="#f79b94" rx="6.44" ry="6.44"/>
  <rect width="39" height="12.87" x="36.38" y="503.88" fill="#89c6c4" rx="6.44" ry="6.44"/>
  <rect width="39" height="12.87" x="5.5" y="415.88" fill="#89c6c4" rx="6.44" ry="6.44"/>
  <rect width="39" height="12.87" x="25" y="176.56" fill="#89c6c4" rx="6.44" ry="6.44"/>
  <rect width="39" height="12.87" x="146.1" y="28.11" fill="#f79b94" rx="6.44" ry="6.44"/>
  <rect width="39" height="12.87" x="241.6" y="21.68" fill="#afdddd" rx="6.44" ry="6.44"/>
  <rect width="39" height="12.87" x="462.6" fill="#afdddd" rx="6.44" ry="6.44"/>
  <rect width="39" height="12.87" x="548.6" y="16.28" fill="#f79b94" rx="6.44" ry="6.44"/>
  <rect width="39" height="12.87" x="579.6" y="61.98" fill="#afdddd" rx="6.44" ry="6.44"/>
  <rect width="39" height="12.87" x="669.5" y="187" fill="#afdddd" rx="6.44" ry="6.44"/>
  <rect width="39" height="12.87" x="691.5" y="345.54" fill="#afdddd" rx="6.44" ry="6.44"/>
  <rect width="39" height="12.87" x="618.17" y="537.73" fill="#89c6c4" rx="6.44" ry="6.44"/>
  <rect width="79.24" height="12.87" x="629.26" y="89.48" fill="#f79b94" rx="6.44" ry="6.44"/>
  <path fill="#ef8984" fill-rule="evenodd" d="M495.91 363.6a66.3 66.3 0 0 0-12.53 1.2 35.22 35.22 0 0 0-2.65-3l-5.27-5.28a34.88 34.88 0 0 0-2.59-2.88L343.38 224.16a31.24 31.24 0 0 0-3.2-2.81 66.15 66.15 0 0 0-87.53-74.24l38.94 38.95a13.78 13.78 0 0 1 0 19.5l-20.13 20.14a13.78 13.78 0 0 1-19.5 0l-39-38.95a66.12 66.12 0 0 0 74.71 87.45 36.91 36.91 0 0 0 2.64 3l5.28 5.28a36.64 36.64 0 0 0 2.58 2.88l129.54 129.48a33.52 33.52 0 0 0 3.2 2.81 66.15 66.15 0 0 0 87.54 74.24l-39-38.95a13.8 13.8 0 0 1 0-19.5l20.14-20.14a13.77 13.77 0 0 1 19.49 0l39 38.95a66.16 66.16 0 0 0-62.18-88.65z"/>
  <path fill="#f79b94" fill-rule="evenodd" d="M519.13 413.3l39 38.95a66.12 66.12 0 0 0-74.71-87.45 35.22 35.22 0 0 0-2.65-3l-5.27-5.28a34.88 34.88 0 0 0-2.59-2.88L343.38 224.16a31.24 31.24 0 0 0-3.2-2.81 66.15 66.15 0 0 0-87.53-74.24l38.94 38.95a13.78 13.78 0 0 1 0 19.5l-9.59 9.58 209.3 206.5 8.33-8.34a13.77 13.77 0 0 1 19.5 0z"/>
  <path fill="#1b75bb" fill-rule="evenodd" d="M284.63 391.48l-45.34 46.47-13.88 20.4 8.75 9.41 20.25-13.7 46.98-45.82 49.65-49.65-16.77-16.77-49.64 49.66zm123.11-115.79l10.95 11 8.64 8.64 13.56 13.55 85.74-85.76a36.68 36.68 0 0 0 0-51.88l-3.45-3.45a36.68 36.68 0 0 0-51.88 0l-85.75 85.74L399.09 267z"/>
  <path fill="#39589b" d="M343.11 350.65l-113.6 112.11 4.65 5 20.25-13.7 46.98-45.82 49.65-49.65-7.93-7.94zm75.58-64l8.64 8.64 13.56 13.55 85.74-85.76a36.68 36.68 0 0 0 0-51.88l-.83-.83-112.43 111z"/>
</svg>
