<?xml version="1.0" encoding="utf-8"?>
<!-- Generator: Adobe Illustrator 22.0.1, SVG Export Plug-In . SVG Version: 6.00 Build 0)  -->
<svg version="1.1" id="Isolation_Mode" xmlns="http://www.w3.org/2000/svg" xmlns:xlink="http://www.w3.org/1999/xlink" x="0px"
	 y="0px" viewBox="0 0 600 600" enable-background="new 0 0 600 600" xml:space="preserve">
<g>
	<g>
		<ellipse fill="#AFDDDD" cx="590.3" cy="324.2" rx="9.7" ry="10.4"/>
	</g>
	<g>
		<ellipse fill="#7DE9EF" cx="63" cy="466.2" rx="9.7" ry="10.4"/>
	</g>
	<g>
		<path fill="#7DE9EF" d="M49.7,187.2c0-2.1-1.9-3.8-4.2-3.8c-2.3,0-4.2-1.9-4.2-4.2s-1.7-4.2-3.8-4.2s-3.8,1.9-3.8,4.2
			s-1.9,4.2-4.2,4.2s-4.2,1.7-4.2,3.8c0,2.1,1.9,3.8,4.2,3.8s4.2,1.9,4.2,4.2s1.7,4.2,3.8,4.2s3.8-1.9,3.8-4.2s1.9-4.2,4.2-4.2
			C47.9,191,49.7,189.3,49.7,187.2z"/>
	</g>
	<g>
		<path fill="#7DE9EF" d="M37.2,384.8c0-1.7-1.5-3.1-3.4-3.1c-1.9,0-3.4-1.5-3.4-3.4s-1.4-3.4-3.1-3.4c-1.7,0-3.1,1.5-3.1,3.4
			s-1.5,3.4-3.4,3.4c-1.9,0-3.4,1.4-3.4,3.1c0,1.7,1.5,3.1,3.4,3.1c1.9,0,3.4,1.5,3.4,3.4c0,1.9,1.4,3.4,3.1,3.4
			c1.7,0,3.1-1.5,3.1-3.4c0-1.9,1.5-3.4,3.4-3.4C35.7,387.8,37.2,386.5,37.2,384.8z"/>
	</g>
	<g>
		<path fill="#F79B94" d="M488.7,47.8c0-1.7-1.5-3.1-3.4-3.1c-1.9,0-3.4-1.5-3.4-3.4s-1.4-3.4-3.1-3.4c-1.7,0-3.1,1.5-3.1,3.4
			s-1.5,3.4-3.4,3.4s-3.4,1.4-3.4,3.1c0,1.7,1.5,3.1,3.4,3.1s3.4,1.5,3.4,3.4c0,1.9,1.4,3.4,3.1,3.4c1.7,0,3.1-1.5,3.1-3.4
			c0-1.9,1.5-3.4,3.4-3.4C487.2,50.9,488.7,49.5,488.7,47.8z"/>
	</g>
	<g>
		<path fill="#AFDDDD" d="M217.4,60.6c1.6-0.4,2.6-2.2,2.2-4s0.7-3.7,2.5-4.1c1.8-0.4,3-2.1,2.6-3.8s-2.2-2.6-4-2.2
			s-3.7-0.7-4.1-2.5c-0.4-1.8-2.1-3-3.8-2.6c-1.6,0.4-2.6,2.2-2.2,4c0.4,1.8-0.7,3.7-2.5,4.1c-1.8,0.4-3,2.1-2.6,3.8s2.2,2.6,4,2.2
			c1.8-0.4,3.7,0.7,4.1,2.5S215.8,61,217.4,60.6z"/>
	</g>
	<g>
		<path fill="#F79B94" d="M100.4,531.5c0.9-1.4,0.3-3.4-1.3-4.4S97,524,98,522.4c1-1.6,0.6-3.6-0.8-4.5c-1.4-0.9-3.4-0.3-4.4,1.3
			c-1,1.6-3.1,2.1-4.7,1.1c-1.6-1-3.6-0.6-4.5,0.8s-0.3,3.4,1.3,4.4c1.6,1,2.1,3.1,1.1,4.7c-1,1.6-0.6,3.6,0.8,4.5
			c1.4,0.9,3.4,0.3,4.4-1.3c1-1.6,3.1-2.1,4.7-1.1S99.5,532.9,100.4,531.5z"/>
	</g>
	<g>
		<path fill="#7DE9EF" d="M587.6,190.5c0-1.7-1.5-3.1-3.4-3.1c-1.9,0-3.4-1.5-3.4-3.4c0-1.9-1.4-3.4-3.1-3.4c-1.7,0-3.1,1.5-3.1,3.4
			c0,1.9-1.5,3.4-3.4,3.4s-3.4,1.4-3.4,3.1s1.5,3.1,3.4,3.1s3.4,1.5,3.4,3.4c0,1.9,1.4,3.4,3.1,3.4c1.7,0,3.1-1.5,3.1-3.4
			c0-1.9,1.5-3.4,3.4-3.4C586.1,193.6,587.6,192.2,587.6,190.5z"/>
	</g>
	<g>
		<path fill="#7DE9EF" d="M543,479.2c0-1.7-1.5-3.1-3.4-3.1s-3.4-1.5-3.4-3.4c0-1.9-1.4-3.4-3.1-3.4c-1.7,0-3.1,1.5-3.1,3.4
			c0,1.9-1.5,3.4-3.4,3.4s-3.4,1.4-3.4,3.1s1.5,3.1,3.4,3.1s3.4,1.5,3.4,3.4s1.4,3.4,3.1,3.4c1.7,0,3.1-1.5,3.1-3.4s1.5-3.4,3.4-3.4
			S543,480.9,543,479.2z"/>
	</g>
	<circle fill="#AFDDDD" cx="407.6" cy="34.2" r="7.9"/>
	<circle fill="#F79B94" cx="571.4" cy="112" r="4.6"/>
	<circle fill="#F79B94" cx="48.2" cy="105.8" r="4.6"/>
	<circle fill="#F79B94" cx="4.6" cy="309.3" r="4.6"/>
	<circle fill="#F79B94" cx="586.5" cy="434.2" r="10.3"/>
	
		<ellipse transform="matrix(0.7071 -0.7071 0.7071 0.7071 -6.4991 103.8811)" fill="#F79B94" cx="122.1" cy="59.8" rx="7.8" ry="7.8"/>
	
		<ellipse transform="matrix(0.2307 -0.973 0.973 0.2307 306.4905 565.5295)" fill="#7DE9EF" cx="510.9" cy="88.9" rx="7.8" ry="7.8"/>
	<g>
		<path fill="#B4EFEF" d="M555.3,329.9c8.7,0,15.9-4.6,15.9-10.3s-7.1-10.3-15.9-10.3c-8.7,0-15.9-4.5-15.9-10c0-5.5,3.2-10,7.1-10
			s7.1-4.6,7.1-10.3c0-5.7,0-14.8,0-20.4c0-5.6-5.9-10.2-13.1-10.2c-7.2,0-13.1-4.5-13.1-10s0-10.1,0-10.2s0-4.6,0-10.2
			s4.3-10,9.5-10c5.2,0,9.5-4.6,9.5-10.2c0-5.6,0-10.2,0-10.3s0-4.7,0-10.3s-12.4-10.2-27.5-10.2c-15.1,0-27.5-4.6-27.5-10.2
			s-4.7-10.2-10.5-10.2s-10.5-4.5-10.5-10c0-5.5,0-10.1,0-10.2s0-4.7,0-10.3s-9.4-10.2-20.8-10.2s-20.8-4.6-20.8-10.2
			c0-5.6-8.3-10.2-18.4-10.2c-10.1,0-18.4-4.6-18.4-10.2c0-5.6-6.5-10.2-14.5-10.2s-14.5-5.2-14.5-11.6s-5-11.6-11.1-11.6
			c-6.1,0-24.6,0-41.1,0h-6.5c-16.5,0-35,0-41.1,0c-6.1,0-11.1,5.2-11.1,11.6s-5.2,11.6-11.6,11.6s-11.6,4.6-11.6,10.2
			c0,5.6-9.1,10.2-20.3,10.2c-11.2,0-20.3,4.6-20.3,10.2c0,5.6-8.5,10.2-18.9,10.2s-18.9,4.6-18.9,10.3c0,5.7,0.4,10.3,1,10.3
			c0.5,0,1,4.5,1,10c0,5.5-6.6,10-14.7,10s-14.7,4.6-14.7,10.2s-11.3,10.2-25.1,10.2s-25.1,4.6-25.1,10.2s5.6,10.2,12.5,10.3
			s12.5,4.6,12.5,10.2s-8.7,10-19.3,10S59,212.3,59,217.9c0,5.6-10.1,10.2-22.5,10.2s-22.5,4.6-22.5,10.3s9.4,10.3,20.9,10.3
			s20.9,4.5,20.9,10c0,5.5-6.5,10-14.4,10s-14.4,4.6-14.4,10.3c0,5.7,11.7,10.3,25.9,10.3s25.9,4.5,25.9,10c0,5.5-7.3,10-16.3,10
			s-16.3,4.6-16.3,10.3s4,10.3,8.8,10.3s8.8,4.6,8.8,10.2c0,5.6,0,10.2,0,10.2c0,0,0,4.5,0,10c0,5.5-4.4,10-9.8,10
			s-9.8,4.6-9.8,10.3c0,5.7,5.1,10.3,11.3,10.3S67,395.4,67,401c0,5.6,13.4,10.2,29.7,10.2s29.7,4.6,29.7,10.2
			c0,5.6-5,10.2-11.1,10.2c-6.1,0-11.1,4.5-11.1,10c0,5.5-5.8,10-12.9,10s-12.9,4.6-12.9,10.3c0,5.7,7.6,10.3,16.9,10.3
			s16.9,4.6,16.9,10.2s7.9,10.2,17.6,10.2s17.6,4.6,17.6,10.2c0,5.6,7.5,10.2,16.7,10.2s16.7,4.6,16.7,10.2
			c0,5.6,6.3,10.2,13.9,10.2s15.8,0,18,0c2.3,0,4.1,3.9,4.1,8.7s6.5,8.7,14.5,8.7c8,0,14.5,5.2,14.5,11.6c0,6.4,5,11.6,11.1,11.6
			c6.1,0,24.6,0,41.1,0h6.5c16.5,0,35,0,41.1,0s11.1-5.2,11.1-11.6c0-6.4,5.2-11.6,11.6-11.6c6.4,0,11.6-3.9,11.6-8.7
			s2.6-8.7,5.9-8.7s13.5,0,22.7,0s16.9-4.6,16.9-10.2c0-5.6,10.4-10.2,23.1-10.2c12.7,0,23.1-4.6,23.1-10.2
			c0-5.6,6.4-10.2,14.3-10.2s14.3-4.6,14.3-10.2s0-14.7,0-20.3c0-5.6,4.2-10.2,9.3-10.2s9.3-4.6,9.3-10.2c0-5.6,0-10.2,0-10.3
			s0-4.6,0-10.2c0-5.5,5.6-10,12.3-10c6.8,0,12.3-4.6,12.3-10.2c0-5.6,0-10.2,0-10.3s0-4.6,0-10.2s3.5-10,7.8-10s7.8-4.6,7.8-10.3
			c0-5.7-4.5-10.3-9.9-10.3c-5.5,0-9.9-4.5-9.9-10C539.4,334.4,546.5,329.9,555.3,329.9z"/>
	</g>
	<g>
		<path fill="#86C4C2" d="M304.9,418c-10.8,12.5-30,14.1-42.6,3.5l-63.4-52.8c-12.7-10.6-14.9-29-4.8-41.1c10-12,28.6-13.2,41.3-2.7
			l20.4,17c12.7,10.6,31.9,9,42.6-3.5l95-110.3c10.8-12.5,29.3-14.4,41.1-4.2c11.9,10.2,12.7,28.8,2,41.3L304.9,418z"/>
	</g>
	<g>
		<g>
			<g>
				<path fill="#F79B94" d="M293.6,391.1c-10.1,11.7-28,13.1-39.8,3.3L187.3,339c-11.8-9.9-13.5-27.6-3.6-39.4l0.6-0.7
					c9.9-11.8,27.6-13.5,39.4-3.6l23.5,19.5c11.8,9.9,29.7,8.4,39.8-3.3l97.6-113.3c10.1-11.7,27.8-13,39.5-2.9l0.7,0.6
					c11.7,10.1,13,27.8,2.9,39.5L293.6,391.1z"/>
			</g>
		</g>
	</g>
</g>
</svg>
