<svg xmlns="http://www.w3.org/2000/svg" data-name="Layer 1" viewBox="0 0 32 32">
  <circle cx="16" cy="27.18" r="1.71"/>
  <path d="M4.553 27.778L29.217 3.115l.658.657L5.21 28.436zM23 7.31l.66-.66A22.66 22.66 0 0 0 0 11.91l.6.6A21.8 21.8 0 0 1 23 7.31zM13.31 17l1-1.05a12 12 0 0 0-6.92 3.41L8 20a11.22 11.22 0 0 1 5.31-3zm5.37-5.37l.73-.73a17.39 17.39 0 0 0-15.69 4.73l.6.6a16.52 16.52 0 0 1 14.36-4.6zm4.1 1.24a16 16 0 0 1 4.9 3.35l.6-.6a17.33 17.33 0 0 0-4.86-3.39zm4.53-4.53l-.62.66a21.85 21.85 0 0 1 4.71 3.54l.6-.59a22.34 22.34 0 0 0-4.69-3.61zM18.66 17a11.18 11.18 0 0 1 5.3 3l.6-.6a12.14 12.14 0 0 0-5.2-3.05zm-4.3 4.29l-1.57 1.57a6 6 0 0 1 7.45.8l.6-.6a6.85 6.85 0 0 0-6.48-1.77z"/>
</svg>
