<?xml version="1.0" encoding="utf-8"?>
<!-- Generator: Adobe Illustrator 22.0.1, SVG Export Plug-In . SVG Version: 6.00 Build 0)  -->
<svg version="1.1" id="Layer_1" xmlns="http://www.w3.org/2000/svg" xmlns:xlink="http://www.w3.org/1999/xlink" x="0px" y="0px"
	 viewBox="0 0 600 600" enable-background="new 0 0 600 600" xml:space="preserve">
<g>
	<path fill="#92E4E0" d="M572.9,121.6c-2.5-8-6.5-15.3-12-21.8c-5.6-6.7-12.1-12.2-19.8-16.4c-7.4-4-15.1-7-23.4-7.7
		c-9.2-0.8-18.6-0.9-27.7,2.1c-2.1,0.7-4.1,1.8-6.4,2c-0.3,0.1-0.5,0.3-0.7,0.5c-2.3,0.4-3.6-0.5-4.6-2.8c-1-2.2-2.2-4.5-4.2-6.1
		c-0.1,0-0.3,0-0.4-0.1h0c-2.8-3.8-5.9-7.4-9.5-10.5c-9.2-8.3-19.7-13.8-31.9-16.4c-9.4-2-18.7-2-28.1-0.3
		c-8.7,1.5-16.8,4.8-24.1,9.5c-7.5,4.9-14,11-19.2,18.5c-7.6,11-12.1,22.9-12.5,36.3c-0.1,1.8-0.7,2.6-2.5,2.5
		c-2.9-0.1-5.7,0.3-8.6,0.9c-7.6,1.7-14.4,5.1-20.4,10c-2.9,2.4-5.3,5.3-8,7.9c1.1,1.2,2.7,0.4,4,0.9c3.2,0.7,6.4,1.7,8.7,4.2
		c1.2,1.3,2.4,2.2,4.2,2.2c0.9,0,1.6,0.6,2.2,1.2c1,1.1,1.6,2.5,2.1,3.9c0.5,1.2,0.9,2.3,0.8,3.6c0,0.4,0,0.7,0,1.1
		c-0.2,2.5,0.9,4.6,2.1,6.6c2,3.6,3.1,7.6,5.6,10.9c3.5,0.7,7.1,1.2,9.9,3.9c4.4,0.5,6.7,3.2,7.9,7.2c1.2,3.9,2.5,7.7,3.7,11.6
		c0.9,2.9,1.1,5.9-1.4,8.3c-0.8,0.8-1.2,1.8-1.7,2.8c-0.5,3.1-2.5,5.4-4.7,7.5c-0.6,2.6-0.4,3.9,0.8,5c0.7-1.3,1.9-0.8,2.9-0.8
		c38.7,0,77.4,0,116.2,0c1,0,1.9,0,2.9,0h6.2c0,0,0,0,0,0h7.5c1.1,0,2.2,0,3.4,0c0,0,0,0,0,0h0c3.7,0,7.4-0.1,11.1,0
		c9.6,0.3,19-0.7,28.1-4c8.9-3.2,16.7-7.9,23.5-14.3c10.5-9.9,17-21.9,19.9-36C577,143.9,576.3,132.6,572.9,121.6z"/>
	<path fill="#92E4E0" d="M15.8,330.7c1.6,0.9,3.5,1.4,5.3,1.4h40.5c0.3-0.3,0.4-0.6,0.2-0.9h0c0.1-0.4,0.2-0.7,0.3-1.1
		c1-6.2,2.7-12.2,5.8-17.7c5-8.7,12.6-14.4,21.9-17.6c3.9-1.4,7.9-2.4,12.2-2.2c7.8,0.4,14.7,3.4,21.4,7
		c10.9,5.9,20.9,13.1,31.5,19.6c3.9,2.4,7.8,4.8,12.1,6.5c1,0.2,1.3-0.7,1.8-1.3c1.8-2,3.3-4.2,5.2-6.1c2.7-2.6,2.7-2.6,5.6-0.8
		c0,0,0.1-0.1,0.2-0.2c0.1-0.4,0.1-0.8,0.3-1.1c2.6-6.9,2-13.6-1.5-19.9c-4.8-8.5-12.5-12.4-22.1-12.2c-1.4,0-1.8-0.3-1.9-1.6
		c-0.6-4.7-1.7-9.3-3.7-13.7c-3-6.7-7.5-12.3-13.2-16.7c-6.3-4.9-13.4-7.9-21.5-8.8c-8.5-0.9-16.7,0.1-24.4,3.6
		c-5.2,2.4-9.8,5.8-13.7,10c-0.7,0.8-1.3,0.9-2.2,0.1c-1.9-1.7-4.2-2.9-6.5-4.1c-6.5-3.3-13.3-3.8-20.1-2.2
		c-6.7,1.5-12.3,5.1-16.6,10.7c-5,6.5-7.4,13.6-6.4,21.8c0.2,1.5-0.5,1.8-1.7,1.7c-3-0.1-6,0.3-8.8,1.3c-8.3,3.1-13.4,9-15.2,17.7
		c-1.1,5.4-0.2,10.6,2.4,15.4c2.3,4.5,6.1,7.5,10.6,9.8C14.3,329.9,15.1,330.3,15.8,330.7z"/>
	<path fill="#E3564C" d="M316.5,519.5c11.9-9.4,20.9-21.3,28.7-34.2c5.5-6.9,23.6-51.6,23.6-51.6c2.2-6.4,4.4-12.7,6.3-19.1
		c2.3-7.5,4.3-15,6.4-22.5c1.3-4.7,2.2-9.4,3.4-14.1c0.7-3,1-6,0.7-9c-2.8-1.4-6-1.1-9-1.3c-7.6-0.4-15.2-0.1-22.7,0.9
		c-6,0.8-12,1.7-18,2.9c-3.2,0.6-6.4,1.4-9.6,2.1c-6.1,1.4-12.1,2.9-18,4.8c-7.3,2.3-14.6,4.8-21.7,7.9c-7.1,3.1-13.9,6.5-20,11.2
		c-3.5,2.8-6.7,5.9-7.3,10.7c-0.8,0.9-0.7,2-0.7,3.1c0,3.1-0.3,6.3-0.7,9.3c-0.9,5.9-0.6,11.8-0.7,17.8c0.5,0.9,0.3,1.8,0.3,2.8
		c-0.6,16.3-0.7,32.6,1,48.9c1.2,10.7,3,21.4,7.9,31.2c2.3,4.7,5.3,9,9.8,11.9C276.3,532.9,295.7,536.7,316.5,519.5z"/>
	<path fill="#FCE7BC" d="M494.7,225.8c-4.1-2.6-7.3-2.7-10.6,2.1c0,0-7.9,15.4-5.2,48c0,1.1,0.2,2.2,0.8,3.1c1-0.9,0.7-2,0.5-3.1
		c-0.2-1.3-0.2-2.6-0.3-4c-0.1-1.7,0.5-1.9,1.9-1.1c5.1,2.9,9.9,6.2,14.3,10.2c0.5,0.4,1,0.8,1.2,1.4c1.5,4.1,3.8,7.9,5.5,11.9
		c1.2,2.8,1.3,2.9,4.4,2.5c5.3-0.6,10.7-1.1,16.1-0.3c1.1,0.2,2.9,2,3.8,1.1c0.2-0.5-0.5-2.8-0.5-3.3
		C526.7,294.3,511.5,244.5,494.7,225.8z"/>
	<path fill="#EA8220" d="M380.5,420.4c-0.7-0.6,1.3-1.9,1.6-2.7c1.8-5.5,3.4-11,4.8-16.7c1.1-4.6,2.5-9.2,3.4-13.9
		c0.3-1.4,0.3-3,1.9-3.8c0.1,0.5,0.2,1,0.9,0.8c3.6-0.9,7.2-1.9,10.8-2.8c2.8-0.7,5.6-1.3,8.3-2.3c2.4-0.9,5-1.3,7.4-2.2
		c3.7-1.3,7.4-2.4,11.1-3.3c1.9-0.5,3.8-1.2,5.6-1.8c5.6-1.9,11.2-3.7,16.7-5.5c0.6-0.2,1-0.6,1.5-1c0.5,0.1,0.8,0.1,1.2,0.2
		c2.7,3.2,1.8,8.1-2,11.4c-2.9,2.5-6.1,4.3-9.6,5.8c-3.9,1.7-7.6,3.7-10.4,7.1c-1.9,2.2-2.8,4.8-2.7,7.6c0.3,0.3,0.5,0.4,0.6,0.2
		c4.6-4.2,10.3-4.3,15.9-3.9c4.5,0.3,9.1,0.2,13.6,0.4c1.1,0,2.2-0.3,3.1,0.7c-3.9,2.4-8.3,3.8-12.5,5.5c-4.7,1.9-9.5,3.4-14.3,5
		C437.5,405.3,418.4,411.9,380.5,420.4z"/>
	<path fill="#D34026" d="M455.8,365.6c2,4,0.9,7.6-2,10.4c-2.7,2.7-6.2,4.6-9.9,6.1c-4.5,1.9-8.7,4.2-11.6,8.3
		c-1.8,2.6-2.6,5.5-1.7,9.2c4.6-5.6,10.7-5.7,16.7-5.2c5.6,0.5,11.3,0.2,16.9,0.4c0.2,0,0.5,0,0.7-0.1c11.2-5.2,21.7-11.6,30.5-20.4
		c1.4-1.4,2.1-2.5,1.1-4.4c-2.8-5.6-4.7-11.7-6.9-17.5L455.8,365.6z"/>
	<path fill="#FCE7BC" d="M519.9,396.7c-3.7-2.2-6.3-5.6-8.7-9c-3.3-4.5-5.9-9.5-8.3-14.5c-2.2-4.5-3.9-9.2-5.6-14
		c-0.7-2-1.6-3.8-2.3-5.8c-0.6-1.9-1.1-3.7-1.1-5.7c0.3-3.5,1.8-6.8,2.7-10.1c1.6-5.8,3.3-11.5,5.1-17.3c0.4-1.1,0.5-2.3,2-2.5
		c1,0.4,1.4,1.4,2.1,2.2c3.5,4.1,5.3,4.7,12.1,3c0.9-0.2,2-1.4,2.6,0.3c-0.2,0.8-0.4,1.7-0.4,2.5c-0.2,11.4,0.4,22.7,0.6,34.1
		c0.2,11.1,0.9,22.1,0.8,33.2c0,0.9,0.1,1.9-0.3,2.8C521,396.6,520.7,397.1,519.9,396.7z"/>
	<path fill="#FCEDCC" d="M519.9,396.7c1.2-0.2,0.9-1.1,0.9-1.8c0.4-10.6-0.4-21.2-0.6-31.7c-0.1-4.1-0.2-8.1-0.3-12.2
		c-0.3-8.4-0.6-16.7-0.5-25.1c0-1.2,0.1-2.2,1-3c0.7-1.2,2.1-1.6,3.2-2.2c1.9-1,3.8-2.1,5.7-3.3c0.7-0.5,1.3-1.2,2.3-0.8
		c0.7,3.2,1.5,6.4,1.9,9.6c0.9,6.8,1.8,13.6,2.3,20.4c0.7,10.9,1.4,21.8-0.6,32.7c-0.8,4.2-1.6,8.3-3,12.4c-1.2,3.5-3.7,5.7-6.9,6.7
		C523.7,398.7,521.5,397.7,519.9,396.7z"/>
	<path fill="#F4BA95" d="M482.9,304c1,5.9,2.1,11.9,3.7,17.8c0.6,2.4,1.1,4.8,1.7,7.2c1.6,6.3,3.2,12.6,5.5,18.7
		c1.8-2.2,2.1-5.2,2.8-7.7c0.6-2.2,1.3-4.6,1.9-6.8c1.1-4.4,2.6-8.7,3.8-13.1c0.2-0.9,0.6-1.6,1.3-2.1c0.6-0.6,0.3-1.1,0-1.7
		c-1.8-3.4-2.3-7.1-2.4-10.9c0-3.4,0.8-6.4,4.4-7.8c0.5-0.2,1-0.5,1-1.2c-1-0.2-2.4,0.6-2.9-1.1c-1.1-3.7-3.3-7-4.9-10.6
		c-0.7-1.5-1.1-3.2-2.6-4.5c-4.8-4-9.9-7.5-15.2-10.6c-1.4-0.8-2.4-0.6-2.6,0.9C478.6,270.5,480.3,288.8,482.9,304z"/>
	<path fill="#58595B" d="M538.5,300c2.6,1.7,3.3,3.3,2.2,5.9c-3.5,1.6-6.7,3.8-10.2,5.2c-7.9,3.1-15.8,5.9-24.5,5.2
		c-0.9-0.1-1.9-0.2-2.7,0.4c-2.5-4.8-3.1-10-2.1-15.2c0.5-2.9,3.1-4.1,5.6-5.1C506.8,296.4,525.9,293.1,538.5,300z"/>
	<path fill="#A7A8AC" d="M174.6,167.3c0.7-3.8,1.8-8.2,3.4-12.4c3.8-10.5,9.5-19.9,16.5-28.6c4.9-6.1,10.4-11.5,16.2-16.7
		c1.9-1.7,4.2-1.5,5.6,0.3c1.3,1.5,1,3.5-0.9,5.1c-6.9,6.1-13.2,12.7-18.7,20.1c-5.9,8-10.4,16.7-13.4,26.2
		c-0.7,2.3-1.2,4.7-1.6,7.1c-0.4,2.2-1.9,3.7-3.8,3.6C175.9,171.9,174.6,170.3,174.6,167.3z"/>
	<path fill="#A7A9AC" d="M51.2,465.4c1.9-0.2,2.9,0.8,3.5,2.6c3.2,9.4,8.2,17.6,15.4,24.5c7,6.7,15.3,11.4,24.2,15.1
		c1.3,0.5,2.7,0.8,4,1.3c2,0.8,2.9,2.5,2.3,4.3c-0.6,1.9-2.9,3.1-4.7,2.4c-13.2-4.4-24.9-11.3-34.2-21.7
		c-5.7-6.4-10.3-13.6-12.9-21.9c-0.4-1.3-1.5-2.4-0.9-4C48.4,466.4,49.2,465.2,51.2,465.4z"/>
	<path fill="#A7A8AC" d="M581.5,338.8c-0.7,8.8-0.8,17.6-2.5,26.4c-1.6,8.1-4,15.9-7.5,23.2c-2,4.1-4.6,7.9-7.1,11.8
		c-1.2,1.8-3.4,2.2-4.9,1.2c-2-1.4-2.4-3.1-1-5.2c4-5.8,7.4-11.9,9.8-18.5c2.5-7,4.1-14.2,4.9-21.6c0.7-6.2,0.8-12.5,1.2-18.7
		c0.1-2.3,1.1-3.3,3.1-3.6c1.7-0.2,3.6,1.3,3.9,3.2C581.5,337.5,581.5,338.1,581.5,338.8z"/>
	<path fill="#A7A8AC" d="M63.8,452.3c1.8,0,2.5,1.8,3.2,3.4c2.7,6.3,6.9,11.6,11.3,16.7c5.4,6.1,11.4,11.5,18.1,16.2
		c2.8,2,5.9,3.5,8.9,5c2.2,1.1,3,2.7,2.2,4.6c-1,2.2-2.7,2.8-4.9,1.8c-11.1-4.8-19.8-12.7-28-21.2c-4.8-5-8.9-10.6-12.4-16.6
		c-1-1.7-1.7-3.5-2.3-5.4C59,454.3,60.7,452.2,63.8,452.3z"/>
	<path fill="#414143" d="M503.3,316.7c0.1-0.7,0-1.3,1.2-1.2c5.2,0.5,10.5,0.1,15.5-1.5c3.4-1.1,6.9-2.1,10.2-3.7
		c3.3-1.6,6.6-3,9.6-5.1c0.7-0.5,0.7,0.2,0.9,0.6c-1,3.7-4,5.8-6.5,8.3c-0.8,0.8-1.7,1.5-2.6,2.2c-3.5,2.5-7.2,4.7-11.2,6.4
		c-2.6,0.9-5.2,1.8-7.9,1.8c-4.5,0-6.6-3.3-8.6-6.6C503.9,317.5,503.5,317.2,503.3,316.7z"/>
	<path fill="#EA8320" d="M104,409.8c-2.3-0.6-4.8-0.4-6.9-1.1c-4.3-1.4-9-1.6-13.1-3.7c-1.3-0.7-1.4-0.1-1.2,1
		c0.5,0.8,0.9,1.6,1.4,2.4c5.3,7.5,11,14.7,18.8,19.8C103.1,428.2,102.1,419.8,104,409.8z"/>
	<path fill="#A7A8AC" d="M567.1,412.8c-1.7,2.1-1.4,4.3,0.3,5.5c1.6,1.2,4.3,0.5,5.7-1.4c0,0,18.1-19.5,25.2-46
		c0.8-3.1,1.9-6.1,1.8-9.4c0-2-0.7-3.3-2.9-3.5c-2.3-0.2-4,1-4.2,3.1C592.9,361.1,586.5,389.3,567.1,412.8z"/>
	<path fill="#92E4E0" d="M575.9,512.9c-5.6-7.8-13.1-12.4-23-12.2c-1.7,0-3.5,0-5.2,0.1c-1.2,0.1-1.7-0.3-2-1.6
		c-0.4-2.4-0.8-4.9-1.8-7.3c-2.2-5.4-5-10.5-9.3-14.6c-4.4-4.2-9.3-7.6-15.3-9c-2.7-1.9-5.9-1.5-8.9-1.9l0,0c-3.3-1-6.6-0.6-9.7,0.2
		c-1.9,0.5-2.9-0.1-3.6-1.5c-0.9-1.7-2.1-3.1-3.4-4.5c-5.3-6.2-11.6-10.8-19.4-13.6c-4.3-1.5-8.6-2.5-13.2-2.8
		c-6.1-0.4-12,0.1-17.8,2c-6.8,2.2-12.8,5.8-18.1,10.8c-5.4,5.1-9.4,11.2-11.9,18.2c-1.5,4.1-2.4,8.4-2.5,12.8
		c-0.1,1.4-0.5,2.1-2.1,2.2c-3.3,0.2-6.6,0.8-9.8,2.1c-11.6,4.7-18.7,13-21.2,25.4c-1.4,7.4-0.4,14.3,2.9,20.9
		c6.1,12.3,16.5,18.7,29.8,18.8c47.2,0.3,94.5,0.1,141.7,0.2c3.3,0,6.5-0.6,9.4-1.8c10.1-4,16.8-11,18.5-22.2
		C581.4,525.9,580.3,519,575.9,512.9z"/>
	<path fill="#C3302E" d="M352.3,471.3c-4,8.5-8.9,16.5-14.3,24.1c-7,9.8-14.8,18.9-24.7,25.8c-3.6,2.5-7.4,4.7-11.4,6.6
		c0,0-12.1,6-24.7,4.2c-1.1-0.2-1,0.3-0.8,1c4.5,3.3,9.6,4.3,15.1,4.1c6-0.2,11.7-1.8,17.2-4.2c10.6-4.6,19.4-11.8,27.1-20.3
		c15.2-17,25.4-37,34-57.9c7-18,14-39.6,14-39.6c1.1-4.4,2.4-8.8,3.6-13.2c0.7-2.8,1.3-5.6,2.1-8.3c1-3.3,1.2-6.9,2.7-10.1
		c-0.1-2,0.6-3.9,1.2-5.7c0.6-1.8,0.2-3.3-0.8-4.8c-1.7-2.5-4.2-3.3-6.8-4.1c-0.4,0.3-0.5,0.8-0.5,1.3c0.2,2.9-0.5,5.7-1.1,8.5
		c-0.5,2.3-1.5,4.6-1.6,7c-0.2,2.7-1.1,5.2-1.9,7.6c-0.9,2.7-1.5,5.5-2.2,8.2c-1.5,5.5-3.2,11-4.8,16.5c-1.1,3.6-2.5,7.2-3.6,10.7
		C369.8,428.7,358.3,458.5,352.3,471.3z"/>
	<path fill="#E3564C" d="M430.2,267.6c3.3,0.2,6.6-0.4,9.8,0.5c5.3,1.4,9.6,3.7,10.5,9.8c0.5,3.6-0.1,6.8-3.1,9
		c-3.3,2.5-7.1,2.7-10.9,1.2c-3.2-1.3-4.9-3.8-4.9-7.6c-4.2,5.6-4.3,10.8,0.6,15c2.4,2,5.3,3.3,8.1,4.6c3,1.5,6.2,2.8,8.6,5.3
		c1.5,1.6,2.9,3.2,2.3,5.5c-0.6,2.6-2.7,3.7-5.1,4.3c-0.9,0.2-1.8,0.4-2.8,0.5c-4.5,0-9.1-0.1-13.6,0.5c-6.2,0.8-12,2.4-17,6.4
		c-5.8,4.6-8.8,10.9-10.6,17.9c-0.4,1.4-0.1,3-0.1,4.7c5.4-3.7,10.4-7.1,16.4-8.9c5.9-1.8,11-1,15.4,3.6c3.1,3.3,4.6,8.6,3,11.8
		c-2.3,4.5-6.1,7.3-10.6,9.3c-2.8,1.3-5.9,1.6-8.9,2.5c4.3,4.1,12.3,5.8,17.5,3.9c4.5-1.6,9.1-3.1,13.7-4.6c2.7-0.9,4.7-0.1,6.4,2.3
		c0.2,0.6,0.6,0.7,1.1,0.7l33.6-13.4c-0.9-2.8-1.9-5.6-2.7-8.4c-2.2-8-4.6-15.9-6.2-24c-1.2-6.2-2.7-12.4-3.7-18.6
		c-1.8-11.3-3.2-22.7-3.5-34.1c0-1.1-0.4-1.8-1.4-2.2c-2.7-1-5.4-2-8.1-3.1c-5-2-10.3-2.8-15.5-4.1
		C448.8,257.8,436.7,259.3,430.2,267.6z"/>
	<path fill="#F6B14C" d="M436.9,261c3.9-1.1,7.9-2.1,11.8-3.2"/>
	<path fill="#F6B14C" d="M263.8,312.6c0.7-0.9,1.4-1,2,0.1c0.8,1.4,1.8,2.8,2.4,4.3c2.3,5.2,6.8,7.8,11.9,9.2
		c10.1,2.9,20.4,2.8,30.8,1.9c5.2-0.5,10.3-1.1,15.4-1.9c8.2-1.3,16.3-3,24.1-6.2c10.3-4.2,19.6-9.8,28.2-16.8
		c6.4-5.3,11.5-11.6,14.1-19.6c0.9-2.8,0.7-5.7,0.1-8.6c-0.8-3.8-1.6-7.5-2.7-11.2c-0.2-0.6-0.7-1.3,0.1-1.9
		c2.6-0.6,5.1-1.2,7.7-1.8c24.7-5.2,51.1-2.4,51.1-2.4c-9.4,5.9-18.2,9.2-18.2,9.2c4.3-0.2,8.5,0,12.7,1.4c7.5,2.5,10.7,12.2,5.6,18
		c-3.1,3.5-7.2,3.7-11.3,2.7c-3.4-0.8-5.7-3.1-6.3-6.7c-3.4,6.5-2.2,10.6,4.3,14.4c3.4,2,7.2,3.5,10.6,5.6c1.9,1.1,3.5,2.6,4.8,4.4
		c1.8,2.7,1.3,5.5-1.3,7.4c-2.1,1.6-4.6,2-7.1,2c-5.9-0.1-11.8,0.1-17.6,1.3c-7.8,1.7-13.7,5.8-18,12.6c-1.9,3.1-3,6.5-4,10
		c-0.3,1.1-0.3,2.2-0.1,3.5c1.6-0.7,3-1.7,4.3-2.6c3.9-2.6,8.2-4.8,12.8-5.8c8.3-1.9,14.7,1.8,17.7,9.9c1.3,3.6,0.3,7.2-2.4,10.2
		c-3.9,4.2-8.5,6.9-14.1,8c-0.5,0.1-1.1,0.2-1.6,0.3c-0.2,0-0.3,0.1-0.6,0.4c2.6,1.9,5.5,3.1,8.7,3.3c4.2,0.4,8.1-0.7,11.9-2.2
		c3-1.2,6-2.3,9.1-3.1c2.9-0.8,5.5,0.5,6.3,3.2c-0.4,1.1-1.3,1.5-2.3,1.8c-8.4,2.8-16.9,5.8-25.4,8.3c-9.1,2.7-18.2,5.4-27.5,7.7
		c-2,0.5-4.1,1.1-6.1,1.5c-0.9,0.2-1.7,0.3-2.1-0.8c-0.4-1.8,0.2-3.4,0.7-5c1.1-3.9-0.8-7.3-4.7-8.6c-0.8-0.3-1.7-0.4-2.4-0.8
		c-3.1-1-6.3-1.1-9.5-1.2c-8.8-0.2-17.5,0.3-26.2,1.6c-8.4,1.3-16.7,2.7-24.9,4.7c-14.5,3.6-28.7,7.8-42.3,14.2
		c-6.7,3.2-13.2,6.8-18.6,12.1c-1.6,1.6-2.4,3.6-3.4,5.6c-0.4,0.7-0.5,1.5-1.2,2c-2,0.9-4.2,1-6.4,1.3c-9.6,1-19.2,1.3-28.8,2.6
		c-4.4,0.6-8.8,0.1-13.1,0.5c-7.1,0.8-14.2,1.4-21.3,1.1c-1.1,0-2.2,0.1-3.3-0.3c-1.2-0.8-0.7-2-0.4-2.9c2.3-6.4,3.4-13,4.1-19.7
		c0.5-5.6-1.2-7.6-6.9-8.2c-7.4-1.4-14.8-0.9-22.2-0.2c-8.6,0.8-17.1,2.2-25.4,4.8c-17.6,5.4-31.3,22.7-31.3,22.7
		c-2.6,0.3-5.2-0.2-7.6-0.8c-4.1-1-8.3-1.5-12.2-3.3c-0.6-0.2-1.1-0.1-1.6,0.2c-2.7-3.6-4.8-7.6-6.9-11.6
		c-3.3-6.4-6.1-13.1-8.4-19.9c-2.6-7.8-4.4-15.8-5.5-23.9c-0.8-6.2-0.4-12.3-0.4-18.5c-0.1-0.5-0.2-0.9-0.2-1.4
		c1.1-7.3,2.9-14.3,7.1-20.5c4-5.9,9.1-10.6,15.5-13.7c4.8-2.3,9.9-4.1,15.2-4.5c5.1-0.3,10.1,0.7,14.9,2.5
		c9.7,3.7,18.4,9.5,27.1,15.1c8.4,5.4,16.8,10.9,25.7,15.6c0,0,17.2,6.2,30.3,3.6c6.9-1.1,13.8-2.6,20.6-4.5c3-0.8,6.1-1.4,9-2.6
		c2.5-0.5,5.1-0.1,7.7-0.5c3.5-0.6,6.6-1.8,9-4.5c2.1-0.7,4.2-1.6,6.4-2.3L263.8,312.6z"/>
	<path fill="#EA8220" d="M259.4,408c-3.9,0.6-7.8,0.6-11.6,1.1c-10.5,1.3-21.1,2.2-31.6,2.7c-1.1,0-2.2-0.1-3.3,0
		c-8.9,1.2-17.9,1.5-26.9,1.4c-1.1,0.6-1.5,1.8-1.9,2.8c-3.6,8.7-8.5,16.6-15.3,23.2c-0.5,0.5-1.5,0.8-1.1,1.8
		c2,0.1,4.1,0.2,6.1,0.3c22.7,0.5,45.4-0.3,68.1-1.9c5.2-0.3,10.3-0.8,15.4-1.2c1-0.5,0.7-1.5,0.7-2.3c0.1-3.8-0.2-7.7,0.2-11.5
		C258.8,419,259.5,413.5,259.4,408z"/>
	<path fill="#E3564C" d="M146.5,449.8c12.8-6.6,22.3-16.6,29.1-29.2c3.1-5.7,5.5-11.7,7.1-18.1c1.1-4.4,1.8-8.9,2-13.4
		c0.1-2.4-0.5-4.8-1.5-7c-6.3-1.4-12.6-1.2-18.9-0.6c-4.7,0.5-9.4,1-14.1,1.8c-5.5,1-11,2.2-16.4,3.7c-4.5,1.3-8.9,2.8-13.2,4.7
		c-4.9,2.2-9.6,4.5-13.1,8.6c-0.9,1-2,2-2,3.6c0,2.1-0.8,4-1.4,5.9c-1.2,3.4-1.3,7-1.6,10.6c-0.2,2.6-0.5,5.3,0.7,7.8
		c1,5.4,1.4,10.9,3.8,16c2.6,5.7,6.2,10.3,12.2,12.6C119.1,456.9,131.7,455.9,146.5,449.8z"/>
	<path fill="#C3302E" d="M141.7,451.3c4.6-1.9,9-4.3,13-7.3c6.4-4.6,11.7-10.4,16.1-16.9c3.4-5,6.2-10.3,8.4-16
		c1.4-3.6,2.8-7.3,3.4-11c0.8-5,2.5-10.1,0.7-15.2c-0.3-0.9-0.2-1.9-0.2-2.8c6.2,0,8.5,3.5,7.5,10.4c-1,7-2.6,13.9-4.6,20.6
		c-3.3,7.9-7.1,15.4-12.6,22c-1.8,2.1-3.8,3.9-5.7,5.8c-7.1,6.6-15.4,11.1-24.6,14.2c-4.1,1.4-8.4,2.4-12.7,3
		c-3.9,0.5-7.7,0-11.3-1.4c-1.1-0.4-2-0.9-2.9-1.4C116.1,455.5,131,456.1,141.7,451.3z"/>
	<g>
		<path fill="#823914" d="M229.8,161.2c-2,5-3.2,10.1-2.9,15.5c1.5-0.5,2.3-2.1,3.9-2.5c0.8-0.2,0.9-1,0.7-1.8
			c-1.6-6,3.3-14.4,8.4-16.8c4.7-2.2,9.3-4.6,14.1-6.5c1.4-0.6,2.7-1.6,4.3-1.6c3.5,0.1,7.1-0.6,10.6,1.2c1.6,0.9,3,2.1,4.5,3.1
			c1.9,1.3,5.5-0.1,5.9-2.3c1-5,3-9.4,7.3-12.5c3.9-2.8,8.8-3.2,13.1-5c4.2-1.7,8.8-2.4,13.5-2.1c0,0-18.4-8.6-47,2.7
			S229.8,161.2,229.8,161.2z"/>
		<path fill="#FDC17C" d="M337.6,216c-2.2-6.4-5.1-12.5-7.8-18.7c-2.2-5.1-4.7-10-7-15c-0.7-1.6-1.7-2.5-3.7-2.4
			c-3.8,0.2-7.6,0.6-11.4,1.4c-7.5,1.6-14.8,3.6-22,6.2c-8,2.9-15.2,7.5-22.1,12.5c-3.1,2.3-3.6,5-3.1,8.4c1,6.7,3.5,13.1,5,19.7
			c1.7,7.2,3.5,14.4,4.4,21.8c0.5,3.9,1,4.5,5,5c1.4,0.2,2.1,0.8,2.1,2.2c0.3-1.2,0.9-1.8,2.3-1.4c3.1,0.7,6.4,0.6,9.6,0.5
			c3.1-0.1,6.2-0.7,9.3-1.3c7.8-1.6,15.3-3.9,22.3-7.7c1.8-0.9,3.2-2.5,5.3-2.8c1.9-1.7,3.7-3.4,5.7-5.1
			C338.4,233.5,340.4,224.4,337.6,216z"/>
		<path fill="#501D08" d="M331.4,146.6c-0.9,1-2.1-1.6-3,0.1c-0.6,1.1,0.3,2.1,0.2,3.2c-0.3,6.5-4.3,14-11.9,16
			c-2.2,0.6-4.4,1.5-6.6,2.1c-4.1,1.2-8.2,3.3-12.5,3.3c-6.1,0-11.1-2.7-14.4-8c-0.6-0.9-1.2-2.1-2.7-1.5c-1.7,0.6-1,1.8-0.8,2.9
			c1,5.8-1,12.3-7,16.6c-2.6,1.8-5.6,2.6-8.3,4.1c-2.7,1.4-5.6,2.5-8.5,3.7c-6.1,2.5-12.8,1-17.8-3.2c-1-0.9-1.5-2.9-3.4-2.2
			c-2.2,0.9-4.2,2.2-4.1,5.1c0,1.1-0.3,1.7-1.4,1.6c-3.2-2.3-5.1-8.1-3.9-11.8c0.3-0.9,1-1.3,1.6-1.9c0.2-0.2,0.2-0.5,0.4-0.6
			c3-1.8,3.1-4.8,3.5-7.9c1-6.9,4.9-11.8,11.6-14.5c4.4-1.8,8.6-4.2,13.1-5.7c6.2-2.2,12-1.7,17.2,2.7c1.3,1.1,2.5,1.4,4,0.7
			c1.1-0.5,1.7-1.2,2-2.4c0.6-2.6,1.4-5.1,2.9-7.4c2.4-3.8,5.8-6.3,10.1-7.5c3.8-1.1,7.6-2.3,11.4-3.6c3.3-1.2,6.7-0.4,10-0.4
			c4,0.4,7.2,2.4,9.8,5.3c0.4,0.5,0.8,1,1.5,0.9c3.5-0.5,4.5,2,5.6,4.5c0.2,0.4,0.3,0.9,0.4,1.3c0.3,1.2,0.4,2.4,0.8,3.6
			C331.4,145.9,331.4,146.3,331.4,146.6z"/>
		<path fill="#501D08" d="M232.6,198.4c1.9-0.1,3.8-0.7,5.8-0.4c6.3,1.1,8.1,5.2,9.7,10.2c0.8,2.4,1.7,4.8,2.3,7.3
			c1.2,5.2,4.3,9.9,4.3,15.5c0,4.4-5.2,10.7-9.8,9.8c-0.8-0.2-1.7,0-2.5,0.4c-2-1-4.2-1.5-5.7-3.3c-0.7-0.9-0.7-1.6,0.5-1.9
			c0.5-0.1,0.9-0.3,1.3-0.5c3.9-1.8,5.5-4.8,4.2-9c-1.5-4.9-3.1-9.7-4.9-14.5c-1.5-3.9-5-5.4-9-4.2c-2.4,0.7-2.4,0.7-2.2-2
			c0.2-2.7,2-4.3,3.8-5.9C231.3,199.3,231.9,198.9,232.6,198.4z"/>
		<path fill="#833914" d="M226.8,205.8c0.1,0.7,0.1,1.4,0.2,2.1c4.6-2,7.8-1.2,10.4,1.5c1.1,1.2,1.6,2.8,1.9,4.1c1.1,4.1,2.8,8,4,12
			c1.6,5.1,0.3,9.2-6.1,10.9c-1.2,0.3-0.3,0.9-0.5,1.4c-1.2-1-2.4-1.9-3.8-2.6c-3.2-1.5-3.4-4.8-4.5-7.6c-1.4-3.5-2.3-7.3-3.6-10.9
			c-0.8-2.3-1-4.5,0.5-6.5C226.5,209,225.8,207.2,226.8,205.8z"/>
		<path fill="#FDC17C" d="M351.3,237.8c1.2-0.9,1.5-2.1,1.4-3.5c-0.2-2.3,0.5-4.5,1.3-6.6c0.4-1.1,1.1-1.8,2.2-1.8
			c0.9,0,1.1,1,1.4,1.7c0.4,0.9,0.7,1.9,0.8,2.9c0.2,2.1,1.3,2.5,3.1,1.4c2.5-1.5,4.3-3.9,6.6-5.6c0.6-0.4,1-1,1.8-1
			c0.9,0,2-0.5,2.5,0.7c0.4,0.9,0.1,1.7-0.7,2.5c-1.6,1.6-3,3.3-4.7,5.1c2.5,0.7,3.8-1.2,5.4-1.9c1.1-0.4,2.2-0.8,3.3-1.1
			c0.7-0.2,1.3,0.1,1.7,0.6c0.4,0.6,0,1.2-0.4,1.7c-0.9,1.2-2.2,1.9-3.6,2.5c-1,0.5-1.9,1.2-2.7,2.1c2,0.7,3.4-1,5-1.5
			c1.4-0.4,3.2-2,4-0.1c0.9,1.9-1.4,2.6-2.8,3.3c-1.9,1-4,1.4-6.2,3.1c2.3,0.1,3.7-0.3,5.2-1c1.2-0.6,3.1-1.4,3.9-0.2
			c0.9,1.5-1,2.3-2.1,3.1c-3.7,2.8-7.9,4.7-12.3,5.9c-1.9-0.9-3.1-2.7-4.7-4c-1.6-1.4-3.1-2.9-4.5-4.5
			C354.7,240.2,353.1,238.9,351.3,237.8z"/>
		<path fill="#823914" d="M351.3,237.8c1.4-0.1,2.4,0.5,3.4,1.5c3.4,3.7,7.3,7,10.6,10.8c0,2.2-1.3,3.3-3.4,3.5
			c-0.6,0.1-1.2-0.1-1.7,0.3c-3.2-3.2-6.6-6.2-9.5-9.9c-0.6-0.7-1.3-1.3-1.9-2C348.6,240.1,349.2,238.5,351.3,237.8z"/>
		<path fill="#C4312F" d="M358.2,295.4c0.2-0.8,0.8-0.8,1.4-0.8c2.9,0,5.8,0.2,8.4-1.2c0.9-0.5,1,0.3,1.5,0.6c0.1,0.3,0.1,0.6,0.2,1
			c-3.2,2.6-6.2,5.4-10,7C358.3,300,357.3,297.9,358.2,295.4z"/>
		<path fill="#833914" d="M353.1,210.5c-0.5-1.7-0.7-3.3-0.5-5c0.1-0.5,0.3-1.1,0.2-1.6c-0.7-6.2-2.2-12.3-4.4-18.2
			c-2.4-6.3-4.7-12.6-7.6-18.6c-0.6-1.2-1-2.4-2.2-3.2c-1.3-2.6-2.6-5.2-3.8-7.9c-1.3-3-3.6-5.7-3.5-9.2c-0.8-0.6-1.7-1.3-2.8-0.6
			c-1.1,0.6-0.9,1.7-0.8,2.7c0.4,4.2-0.8,7.9-3.4,11.2c-2.2,2.9-5.1,4.7-8.6,5.7c-5.3,1.6-10.6,3.4-15.9,4.8
			c-2.3,0.6-4.4,0.4-6.7-0.4c-4-1.4-7.3-3.6-9.5-7.2c-0.7-1.2-1.8-2-3.4-1.3c-1.5,0.6-1.4,1.8-1.1,3.2c1.5,6.7-2.2,14.3-8.6,17.3
			c-5,2.3-9.9,4.7-15,6.7c-2.3,0.9-4.8,1.2-7.4,0.9c-4.2-0.4-7.6-2.2-10.6-5.1c-0.8-0.8-1.7-1.7-3.1-1.2c-2.1,0.9-3.9,2.2-4.3,4.6
			c-0.2,0.9-0.5,1.8-0.9,2.6c0.3,1,1.7,0.9,1.9,2.2c0.3,2,0.9,3.9,1.4,5.8c0.8,0.8,1.8,0.4,2.7,0.3c5.1-0.5,8.9,1.7,10.9,6.3
			c1.6,3.6,2.5,7.4,3.7,11.1c1.2,3.8,2.6,7.5,3.8,11.3c1.8,6.2-2.3,12.3-8.8,12.7c-0.9,0.1-1.9,0-2.4,1.1c0,1.5,0,3,0.1,4.4
			c0.6,5.5-1.5,9.8-5.5,13.4c-3.2,2.9-6.6,5.6-9.5,8.9c-5.1,5.9-2.8,15.5,4.4,18.1c3.2,1.6,6.4,1.4,9.5,0c3.9-0.6,7.5-2.2,10.7-4.4
			c9.3-6.2,14.4-14.6,13.3-26.2c-1.1-11.1-3.9-21.8-6.7-32.6c-1.4-5.4-3.3-10.6-4-16.1c-0.6-4.8,0.7-8.6,5-11.1
			c0.4-0.2,0.8-0.5,1.2-0.7c7.3-4.9,15-8.8,23.2-11.9c7.3-2.7,14.8-4.8,22.5-6.5c4.7-1.1,9.5-1.9,14.4-1.8c3.5,0.1,5.8,1.4,7.6,4.8
			c4.4,8.4,8.5,16.9,12.1,25.6c2.2,5.2,4.5,10.5,5.1,16.2c0.4,4.5,0.2,8.9-2.9,12.6c-0.1,0.2-0.2,0.5,0.1,0.8
			C351.2,227.9,354.9,221.3,353.1,210.5z"/>
		<path fill="#501D08" d="M352.6,205.4c-0.4-2-1-4.1-1.2-6.1c-0.8-6.4-3.4-12.1-5.5-18.1c-2.1-6-4.9-11.6-7.3-17.4
			c3.7,0.3,7.4,0.7,9.8,4c2.3,1.1,2.5,3.5,3.1,5.5c1.6,5.1,3.3,10.1,5,15.2c1.1,3.3,2.4,6.5,0.9,9.9
			C356.8,201.5,355.4,204,352.6,205.4z"/>
		<path fill="#833915" d="M357.5,198.5c0.9-5-1.5-9.4-3-13.9c-1.1-3.5-2.1-7.1-3.3-10.6c-0.7-2.1-1.3-4.3-2.7-6.1
			c4.6,0,6.9,2,8.4,6.9c1.3,4.1,2.7,8.1,3.9,12.2c1,3.3,1.1,6.5-2,8.9C357.9,196.5,357.9,197.6,357.5,198.5z"/>
		<path fill="#823914" d="M331.4,145.6c-1-1-0.8-2.3-0.8-3.6C331.1,143.1,331.5,144.3,331.4,145.6z"/>
		<path fill="#3C2517" d="M279.4,205.5c4.3,0,8.3,2.9,9.8,6.7c0.6,1.6,0.6,2.8-1.1,3.5c-1.7,0.7-2.6-0.4-3.3-1.8
			c-2.2-4.5-7.7-5.1-10.6-1.2c-1.1,1.4-1.4,3.1-1,4.9c0.4,1.5,0.4,2.9-1.4,3.4c-2,0.5-2.8-0.7-3.2-2.4
			C267.1,212,272.5,205.4,279.4,205.5z"/>
		<path fill="#3D2517" d="M311.6,204.7c0,0.5,0.1,0.9,0.1,1.4c0.1,1.3-0.5,2.2-1.8,2.3c-1.3,0.1-2.2-0.2-2.7-1.7
			c-1.9-5.6,1.3-11.5,7.5-13.6c4.9-1.7,11.3,1.7,13,6.8c0.4,1.3,0.2,2.4-1.1,3c-1.4,0.7-2.4,0.2-3.1-1.1c-0.7-1.3-1.3-2.6-2.7-3.4
			c-2.2-1.3-4.5-1.3-6.7,0C312.2,199.6,311.4,201.6,311.6,204.7z"/>
		<path fill="#221E1F" d="M318.7,228.6c-0.6,0.7-1.4,0.5-2.2,0.6c-3.7,0.5-6.9,2-8.7,5.5c-0.6,1.1-1.3,1.9-2.6,1.2
			c-4.1-2.5-7.9-1.6-11.6,0.7c-0.3,0.2-0.6,0.2-0.9,0.1c-1.7-1.8-3.7-3.3-3.7-6.2c1.1-1.8,3.1-1.6,4.7-2.2c3.7-1.4,7.4-2.6,11.2-3.8
			c3.5-1.2,7.1-2.4,10.6-3.6c2.8-1,3.1,0,3.1,0S320,225.7,318.7,228.6z"/>
		<path fill="#EC1B24" d="M319,227.7c0,0.5-0.5,1.5-0.9,2.7c-1.1,3.9-3,7.2-6.6,9.5c-6.1,3.9-14.2,2.6-18.9-3.1
			c4-3.1,8.2-3.9,12.8-1.3c0.8,0.5,1.1,0.5,1.5-0.4C309.2,230.2,314,227.5,319,227.7z"/>
		<path fill="#FCFCFB" d="M307,219.1l7.3-2.4c0,0,3-1.1,3.4,0.6c0.1,0.2,1.4,3.5,0.3,3.6c-0.4,0.1-1.8,0.6-1.8,0.6
			c-4.3,1.4-6.8,2.2-11.1,3.6c-5.4,1.8-10.7,3.6-16.1,5.4c-1.6-0.8-1.7-2.5-2.4-3.8c-0.5-0.9,0.3-1.1,0.9-1.3
			c4.3-1.5,8.7-2.9,13-4.3C302.7,220.4,307,219.1,307,219.1"/>
		<path fill="#823914" d="M344.7,301.8c-0.1,1.9-0.1,3.8,0.3,5.6c0.3,1.5-0.3,2.1-1.8,2.7c-8.7,3.2-17.7,4.1-26.8,5.1
			c-8.6,1-17.2,0.4-25.8,0.4c-2.8,0-5.6-0.8-8.3-1.5c-2.7-0.7-3.5-3.2-4.5-5.5c-2-4.6-1.2-9.4-1.5-14.1c-0.9-1.4-2.7-0.7-3.4-2.1
			c2.3-2.4,8-6.1,10.7-8c4.1-2.8,8.7-4.8,12.4-8.3c0.3-0.3,0.8-0.6,1-0.9c2-3.8,5.8-4,9.3-4.6c3.2-0.6,6.1-1.8,9-3.1
			c4.2-1.9,8.2-4.3,11.3-8c0.6-0.7,0.7-2,2-2.3c2.3,4.1,3.9,8.5,5.7,12.8c0.6,1.4,1.1,2.8,2.3,3.8c0.4,1.2,1.3,2.4,0.6,3.9
			c-0.2,0.2-0.4,0.3-0.6,0.4c-2,0.4-3.9,0.1-5.8-0.3c-5.7-1.2-11.3-2.4-16.8-4.2c-6.2-2-14.3,1.4-16.4,6.8
			c-2.3,6.1,0.2,12.5,6.4,14.7c8.8,3.1,17.8,3.9,27.1,2.1c4.3-0.9,8.6-2,13-2.8C344.5,296.8,345.2,299.2,344.7,301.8z"/>
		<path fill="#FEC17C" d="M365.3,274.7c2,0,1.7,1.4,1.4,2.5c-0.3,1.2-0.5,2,1.2,1.8c1.2-0.1,1.7,0.7,1.9,1.7c0.3,0.9-0.2,1.7-1,2.1
			c-1.5,0.9-2,1.3,0.3,2c1.6,0.5,1.3,2,0.4,3c-1,1.1-1.2,1.8,0.3,2.5c0.8,0.3,0.8,1,0.4,1.5c-0.5,0.7-0.5,1.4-0.6,2.2
			c-3.7,1.2-7.5,0.9-11.3,1.7c-1.9-0.6-3.9-0.6-5.7-1.5c-0.7-2.8-1.1-5.8-1.8-8.6c-0.9-3.2-1.6-6.5-2.5-9.7c0.7-2.2,0.8-4.6,2.2-6.5
			c0.5-0.7,0.9-1.7,2-1.8c1.4,1.1,1,2.9,1.5,4.3c1,3.6,1.1,3.7,4.9,3.1c1.3-0.2,2.6-0.7,3.9-0.8C363.6,274,364.6,274,365.3,274.7z"
			/>
		<path fill="#C3302E" d="M363.9,267.8c-1.3-4.3-0.9-9.2-4.4-12.8c-1.1,0-2.2-0.1-3.3-0.1c-2.9,0-4.3,1.5-5.2,4.3
			c-0.5,1.6,0.9,3.1-0.2,4.5c0,0,0,0,0,0c1.4,1,0.3,2.8,1.3,4l0,0c0,0,0,0,0,0c0.5,2,1.1,4,1.5,6c0.4,2,1.4,2.5,3.4,2.1
			c2.8-0.5,5.4-1.4,8.3-1.2C364.9,272.4,364.6,270,363.9,267.8z"/>
		<path fill="#501D08" d="M337,277.6c1.1,1.6,2.7,0.7,4.1,0.8c2.8,0.2,3.1,0.2,3,3.1c-0.1,3.5,1.2,6.7,2.2,9.9
			c0.5,1.5,0.4,2.2-0.7,2.9c-0.5,0.1-0.9,0.1-1.4,0.2c-8.7,3.1-17.7,4.7-26.9,4c-6.1-0.5-12.5-1.1-17.5-5.3
			c-5.6-4.7-5.2-15.1,2.4-18.8c5.3-2.6,10.3-2.5,15.7-0.4c2.7,1.1,5.7,1.8,8.8,2.2C330.1,276.6,333.5,277.8,337,277.6z"/>
		<path fill="#833915" d="M352.7,293.9c-1.3,1.2-2.8,1.5-4.4,0.7c-0.9-0.5-1.7-0.4-2.6-0.2c0.7-2.7-0.8-5.1-1.3-7.6
			c-0.3-1.7-0.9-3.3-0.8-5c0.1-1.8-0.7-2.8-2.6-2.7c-0.9,0-1.7,0.1-2.6-0.1c-0.7-0.1-1.7-0.2-1.3-1.4l0.1-0.2c1.5,0.1,3,0.2,4.4,0.2
			c1.1,0,1.9,0,2.7-1.3c0.8-1.4,2.7-0.7,4.1-0.7c0.6,0.5,1.1,1.1,1.2,1.9c1,4.2,2,8.4,2.9,12.6C352.9,291.4,353,292.7,352.7,293.9z"
			/>
		<path fill="#E3554C" d="M264.2,312.8c0.5-5,1.4-9.8,3.5-14.4c1.2-2.5,3.2-4.3,5.2-6.2c1.6,0.3,2.8,1.4,3.8,2.6
			c0.5,2.1,0.2,4.2,0.3,6.3c0.1,3.4,1,6.5,2.5,9.5c0.7,1.5,1.9,2.5,3.5,2.8c3.4,0.8,6.9,1.6,10.4,1.5c3.2-0.1,6.4-0.1,9.6,0
			c10.6,0.4,20.9-1.2,31.3-3.1c2.8-0.5,5.5-1.4,8.1-2.4c1.3-0.5,1.9-1.3,1.6-2.7c-0.2-1.6-0.4-3.3,0.1-4.9c1.1-1,1.2,0.1,1.4,0.7
			c0.2,1.2,0.3,2.5,0.4,3.7c0.1,1.5,0.7,1.6,2,1.1c3.5-1.4,6.7-3.2,10-5c0.4-0.2,0.8-0.5,1.3-0.6c3-1.7,5.7-4,8.5-6
			c0.6-0.4,1-1.3,2-0.9c4.3-3.4,8.1-7.2,10.1-12.5c1.1-2.9-0.1-5.6-0.9-8.2c-1-3.2-2.8-6-5-8.6c-2.8-3.3-2.7-4.5-0.3-8.2
			c1.5-2.3,3.3-4.2,5.8-5.2c3.3-1.4,5.1-0.6,7.1,2.4c1.5,2.3,2.5,4.8,3.5,7.4c1.6,6,3.5,11.9,3.7,18.2c0.1,2.8-1,5.1-2,7.5
			c-3.3,7.5-8.9,13.1-15.3,18.1c-6.2,4.9-12.8,9-19.9,12.3c-7.7,3.5-15.6,6.3-24.1,7.7c-4.7,0.7-9.4,1.8-14.1,2.3
			c-10,1.1-20,2.2-30.2,0.6c-4-0.6-8-1.3-11.7-3c-3.7-1.7-7-3.9-8.7-7.9c-0.7-1.8-2-3.3-2.8-5.1
			C264.7,311.8,264.6,312.8,264.2,312.8z"/>
		<g>
			<path fill="#7CA496" d="M267.8,176.1l-15,6.6c-4.5,2-9.7-0.1-11.7-4.6l-2.2-4.9c-2-4.5,0.1-9.7,4.6-11.7l15-6.6
				c4.5-2,9.7,0.1,11.7,4.6l2.2,4.9C274.3,169,272.3,174.2,267.8,176.1z"/>
			<g>
				<path fill="#BED1CA" d="M244.3,181.6c2.6,1.8,6.1,2.2,9.2,0.8L254,157l-9.3,4.1L244.3,181.6z"/>
				<path fill="#BED1CA" d="M257.7,180.6l3.7-1.6l0.5-24.4c-1.2,0-2.5,0.2-3.7,0.6L257.7,180.6z"/>
			</g>
		</g>
		<g>
			<path fill="#7CA496" d="M315.2,158.7l-15.5,5.5c-4.6,1.6-9.7-0.8-11.3-5.4l-1.8-5.1c-1.6-4.6,0.8-9.7,5.4-11.3l15.5-5.5
				c4.6-1.6,9.7,0.8,11.3,5.4l1.8,5.1C322.3,151.9,319.9,157,315.2,158.7z"/>
			<g>
				<path fill="#BED1CA" d="M303.7,138.2l-9.6,3.4l-2.2,21.2c2.4,1.6,5.6,2.1,8.6,1.1l0.6-0.2L303.7,138.2z"/>
				<path fill="#BED1CA" d="M305.5,162.1l3.8-1.4l2.4-24c-1.2-0.2-2.5-0.2-3.7,0L305.5,162.1z"/>
			</g>
		</g>
		<path fill="#501D08" d="M264.9,275.4c1.4-2,3-3.5,4.9-4.8c2.4-1.7,4.3-3.9,6-6.3c0.5-0.8,0.5-1.6,0.6-2.4c0.1-1.6-0.3-3.3,0.6-4.8
			c0.1-1.7,1-2.2,2.7-2c11.1,1.7,21.6-1,32-4.7c4.1-1.4,8-3.2,11.6-5.6c0.8-0.5,1.6-1,2.6-0.3c1,1.9,2.4,3.6,2.9,5.7
			c0.3,1.2,1.2,0.7,1.9,0.5c4.2-1.2,8.2-3,12-5c2.1-1.1,4.2-2.4,6.2-3.5c1-0.3,1.3,0.6,1.9,1.1c2.9,2.9,5.2,6.3,8.5,8.7
			c0.6,0.4,1.2,1,1,2c-0.2,0.3-0.5,0.7-0.7,1c-0.9,0.7-1.9,0.5-2.9,0.5c-3.4,0.2-5.1,2-5,5.4c0,1,0.3,2-0.3,3
			c-4.4,4.1-8.8,8.2-14.8,10.1c-1.9-0.5-2.2-2.3-2.8-3.7c-1.7-4.1-3.5-8.2-5.3-12.4c-6.2,7.6-14.4,11.3-23.6,13.2
			c-2.9,0.6-5.6,1.4-7.6,4.1c-2.4,3.2-6,4.9-9.4,7c-4.1,2.5-8.3,5-12.1,8.1c-0.8,0.9-1.7,1.5-2.6,2.3c-4.5,3.9-6.7,9-7.5,14.7
			c-0.3,1.9-0.6,3.7-1.4,5.4c-0.9,1.4-0.4,2.9-0.6,4.4c-0.6,6.1-2.7,11.4-8,14.8c-2,1.3-4,2.3-6.5,2.2c-8-0.5-15.1,1.9-21,7.4
			c-0.9,0.9-1.5,0.4-2.2-0.2c-2.8-2.9-4-6.6-5.2-10.3c-0.2-0.6,0.2-0.9,0.7-1.2c6.5-4.1,13.4-6.9,21.2-7c0.3,0,0.5,0,0.8,0
			c6.5-0.7,7.5-1.6,8.3-8.3c0,0,0,0,0,0c0,0,0,0,0,0c1-3.3,1-6.7,1.9-10.1c2.3-8.5,6.7-15.4,14.5-19.9c3.5-2,7.3-3.7,9.9-7.8
			c-6.6,3.1-13,5.3-18.8,8.9c-4,2.4-7.2,5.1-8.2,10c-1.6,7.5-3.6,14.8-7.1,21.7c-2.7,4-7,4.7-11.3,5.1l-11.5,0.5
			c-3.7,0.2-7.4,0.6-10.9,1.5c-3.5,0.9-6.8,2.1-10,3.9l-17.7,10.2c-4.9,2.3-9.1,0.3-13-3.8c-1.1-1.1-2.4-2.1-3.8-2.8
			c-1.8-1-1.7-1.9-0.8-2.9c0.8-0.9,1.6-1.9,2.1-3c2.6-2.7,4.5-6,7.4-8.6c2.9-2.6,3.3-2.7,5.4,0.3c2.8,4.7,7.2,5.4,12.1,1.9
			c2.8-2,5.2-4.4,8-6.3c5.3-3.8,11.2-5,17.7-4.5c3.2,0.3,6.4,0.5,9.6-0.2c5.3-1.3,8.8-4.7,11.1-9.5c0.7-2.2,0.7-4.7,2-6.5
			c2.4-3.3,5.4-4.2,9.9-5.5C250.2,286.7,259.9,282.7,264.9,275.4z"/>
	</g>
</g>
</svg>
