<svg xmlns="http://www.w3.org/2000/svg" data-name="Layer 1" viewBox="0 0 622.89 435.81">
  <path fill="#b4efef" d="M606.79 358.58H303.37c-8.86 0-16.11 5.28-16.11 11.74v1.56c0 6.46 7.25 11.74 16.11 11.74h64c8.86 0 16.1 5.29 16.1 11.75v1.56c0 6.46-7.24 11.74-16.1 11.74H242.18c-8.86 0-16.11 5.29-16.11 11.74v1.57c0 6.46 7.25 11.74 16.11 11.74H545.6c8.86 0 16.1-5.28 16.1-11.74v-1.57c0-6.45-7.24-11.74-16.1-11.74h-20c-8.85 0-16.1-5.28-16.1-11.74v-1.56c0-6.46 7.25-11.75 16.1-11.75h81.19c8.86 0 16.1-5.28 16.1-11.74v-1.56c0-6.46-7.24-11.74-16.1-11.74z" style="isolation:isolate"/>
  <path fill="#b4efef" d="M309.44 322.56H62.83c-7.2 0-13.09 4.29-13.09 9.54v1.27c0 5.25 5.89 9.55 13.09 9.55h52c7.2 0 13.09 4.29 13.09 9.54v1.3c0 5.25-5.89 9.54-13.09 9.54H13.09c-7.2 0-13.09 4.3-13.09 9.55v1.27c0 5.25 5.89 9.54 13.09 9.54h246.62c7.2 0 13.09-4.29 13.09-9.54v-1.27c0-5.25-5.89-9.55-13.09-9.55h-16.27c-7.2 0-13.09-4.29-13.09-9.54v-1.3c0-5.25 5.89-9.54 13.09-9.54h66c7.2 0 13.09-4.3 13.09-9.55v-1.27c0-5.25-5.89-9.54-13.09-9.54z" style="isolation:isolate"/>
  <rect width="236.45" height="286.66" x="182.71" y="57.4" fill="#d1d1d1" rx="9.69" ry="9.69"/>
  <rect width="205.4" height="263.79" x="182.71" y="80.26" fill="#efefef" rx="8.66" ry="8.66"/>
  <path fill="#efefef" d="M182.71 57.4h35.18v286.66h-35.18z"/>
  <path fill="#d1d1d1" d="M182.71 57.4h34.18v286.66h-34.18z"/>
  <path fill="none" stroke="#5b5b5b" stroke-linecap="round" stroke-linejoin="round" stroke-width="8" d="M215.1 49.3v268.84"/>
  <path fill="none" stroke="#5b5b5b" stroke-linecap="round" stroke-linejoin="round" stroke-width="7.247" d="M246.68 238.78h106.29m-106.29 16.11h89.38m-46.3 16.1h31.81m-74.89 0h27.58m-27.58 16.11h62.81m65.22-48.32h16.91"/>
  <path fill="none" stroke="#5b5b5b" stroke-linecap="round" stroke-linejoin="round" stroke-width="8" d="M371.89 49.26a14.34 14.34 0 0 0 2 0M182.71 283.01V59.22a9.92 9.92 0 0 1 9.92-9.92h166.26M182.71 283.26v-.25m239.69 8.75v44a9.92 9.92 0 0 1-9.92 9.92H192.63a9.92 9.92 0 0 1-9.92-9.92v-38.5M388.39 49.3h24.09a9.92 9.92 0 0 1 9.92 9.92v193.29"/>
  <path fill="#d1d1d1" d="M203.36 320.57h215.8v41.3h-215.8a20.65 20.65 0 0 1-20.65-20.65 20.65 20.65 0 0 1 20.65-20.65z"/>
  <path fill="#efefef" d="M210.39 340.18h137.5v13h-137.5a6.5 6.5 0 0 1-6.5-6.5 6.5 6.5 0 0 1 6.5-6.5z"/>
  <path fill="none" stroke="#5b5b5b" stroke-linecap="round" stroke-linejoin="round" stroke-width="7" d="M347.39 320.57h71.77v41.3h-215.8a20.66 20.66 0 0 1-20.65-20.65 20.65 20.65 0 0 1 20.65-20.65h115m.03 0h29m-133.1 29.15h184.62"/>
  <circle cx="268.98" cy="148.04" r="9.28" fill="#5b5b5b"/>
  <circle cx="365.27" cy="148.04" r="9.28" fill="#5b5b5b"/>
  <path fill="none" stroke="#5b5b5b" stroke-linecap="round" stroke-linejoin="round" stroke-width="8.731" d="M291.77 198.26a25.41 25.41 0 0 1 50.73 0"/>
  <circle cx="392.33" cy="326.96" r="58.24" fill="#f79b94"/>
  <path fill="#ce7672" d="M349.56 287.44a58.24 58.24 0 0 0 93.85 67.51 58.24 58.24 0 1 1-93.85-67.51z"/>
  <path fill="#b4efef" d="M429.01 376.76l8.57-7.38 7.74-8.21 52.4 52.4a13.36 13.36 0 0 1 3 14.25 11 11 0 0 0-6.65 4.36c-3 4.22-14.25-3.17-14.25-3.17z"/>
  <path fill="#86c4c2" d="M432.89 373.39l55.06 54.51a13.92 13.92 0 0 0 6.56 3.64c-.17.2-.33.41-.49.64-3 4.22-14.25-3.17-14.25-3.17l-50.76-52.25z"/>
  <path fill="none" stroke="#5b5b5b" stroke-linecap="round" stroke-linejoin="round" stroke-width="7" d="M346.43 361.52a61.45 61.45 0 1 0-12.24-45m5.61 34.24c.27.55.54 1.1.82 1.64m-6.48-21.08c.17 1.47.4 2.94.69 4.42q.56 2.86 1.35 5.61m96.89-24.46a38.46 38.46 0 0 0-33.05-31m33.43 42.98a40.73 40.73 0 0 0 .3-4.77m41.82 60.36l23.67 23.68a14.2 14.2 0 0 1 0 20 14.18 14.18 0 0 1-20 0l-49.18-49.17m20.01-20l10.53 10.53m6.9 6.9l1.04 1.04"/>
  <circle cx="221.79" cy="19.9" r="5.46" fill="#89c6c4"/>
  <circle cx="457.24" cy="37.35" r="3.91" fill="#89c6c4"/>
  <path fill="#89c6c4" d="M386.62 22.87l-1.59-1.59 1.59-1.59a2.185 2.185 0 1 0-3.09-3.09l-1.59 1.59-1.59-1.59a2.181 2.181 0 1 0-3.08 3.09l1.62 1.59-1.59 1.59a2.18 2.18 0 1 0 3.08 3.08l1.59-1.59 1.59 1.59a2.181 2.181 0 0 0 3.09-3.08zM157.53 49.81l-2-2 2-2a2.701 2.701 0 0 0-3.82-3.82l-2 2-2-2a2.701 2.701 0 0 0-3.82 3.82l2 2-2 2a2.701 2.701 0 0 0 3.82 3.82l2-2 2 2a2.701 2.701 0 0 0 3.82-3.82z"/>
  <rect width="4.86" height="11.34" x="172.82" fill="#f16654" rx="2.41" ry="2.41"/>
  <rect width="4.86" height="11.34" x="172.82" y="14.58" fill="#f16654" rx="2.41" ry="2.41"/>
  <rect width="4.86" height="11.34" x="180.23" y="7.53" fill="#f16654" rx="2.41" ry="2.41" transform="rotate(90 182.715 13.015)"/>
  <rect width="4.86" height="11.34" x="165.65" y="7.53" fill="#f16654" rx="2.41" ry="2.41" transform="rotate(90 168.14 13.02)"/>
  <rect width="3.24" height="9.72" x="458.79" y="60.78" fill="#f16654" rx="1.62" ry="1.62"/>
  <rect width="3.24" height="9.72" x="458.79" y="73.73" fill="#f16654" rx="1.62" ry="1.62"/>
  <rect width="3.24" height="9.72" x="465.38" y="67.49" fill="#f16654" rx="1.62" ry="1.62" transform="rotate(90 467.06 72.17)"/>
  <rect width="3.24" height="9.72" x="452.42" y="67.49" fill="#f16654" rx="1.62" ry="1.62" transform="rotate(90 454.105 72.175)"/>
  <path fill="#f16654" d="M427.51 5.92a8.48 8.48 0 0 1 3.38-3.29 10.93 10.93 0 0 1 5.43-1.37 13.17 13.17 0 0 1 6.31 1.67 13.52 13.52 0 0 1 4.68 3.91 9.6 9.6 0 0 1 1.92 4.92 8.27 8.27 0 0 1-.94 4.77 7.13 7.13 0 0 1-2.34 2.69 10.49 10.49 0 0 1-2.9 1.37q-1.49.45-5.22 1.36a15.37 15.37 0 0 0-1.72.52 5.35 5.35 0 0 0-1.1.55 5.11 5.11 0 0 0-.74.63c-.22.23-.58.64-1.09 1.23a2.6 2.6 0 0 1-3.59.84 2.88 2.88 0 0 1-1.43-1.66 3.15 3.15 0 0 1 .38-2.47 8.67 8.67 0 0 1 2.13-2.71 8.5 8.5 0 0 1 2.6-1.46 36.76 36.76 0 0 1 3.6-1c1.28-.3 2.23-.54 2.82-.73a6.65 6.65 0 0 0 1.69-.78 3.49 3.49 0 0 0 1.23-1.35 4.13 4.13 0 0 0 .26-3.42 5.11 5.11 0 0 0-2.56-2.82 5 5 0 0 0-3.94-.63 10.23 10.23 0 0 0-3.6 2.4q-1.94 2-3.89.91a2.94 2.94 0 0 1-1.51-1.85 2.84 2.84 0 0 1 .14-2.23zm-2 27.89a3.67 3.67 0 0 1-1.76-2 3.23 3.23 0 0 1 .27-2.77 3.31 3.31 0 0 1 2.07-1.7 3.44 3.44 0 0 1 2.69.3 3.41 3.41 0 0 1 1.43 4.69 3.25 3.25 0 0 1-2.13 1.77 3.52 3.52 0 0 1-2.53-.29zm-293.7 54.27a7.82 7.82 0 0 1-1.37-4.14 10.09 10.09 0 0 1 1.06-5.08 12 12 0 0 1 4-4.59 12.6 12.6 0 0 1 5.16-2.31 8.91 8.91 0 0 1 4.84.37 7.66 7.66 0 0 1 3.6 2.73 6.66 6.66 0 0 1 1.29 3 9.82 9.82 0 0 1 0 3c-.16 1-.5 2.58-1 4.91a15.83 15.83 0 0 0-.26 1.64 4.16 4.16 0 0 0 .24 2c.1.27.29.74.58 1.41a2.41 2.41 0 0 1-.76 3.33 2.62 2.62 0 0 1-2 .51 2.86 2.86 0 0 1-1.9-1.31 8.09 8.09 0 0 1-1.4-2.85 7.85 7.85 0 0 1-.16-2.76 31.87 31.87 0 0 1 .62-3.41c.27-1.19.46-2.08.55-2.65a6.2 6.2 0 0 0 0-1.72 3.43 3.43 0 0 0-.62-1.58 3.81 3.81 0 0 0-2.76-1.6 4.7 4.7 0 0 0-3.38 1 4.61 4.61 0 0 0-2.13 3 9.44 9.44 0 0 0 .54 4c.56 1.6.28 2.81-.83 3.61a2.77 2.77 0 0 1-2.15.51 2.63 2.63 0 0 1-1.76-1.02zm22.45 13a3.47 3.47 0 0 1-2.37.68 3 3 0 0 1-2.19-1.36 3 3 0 0 1-.58-2.41 3.23 3.23 0 0 1 1.34-2.12 3.17 3.17 0 0 1 4.5.71 3 3 0 0 1 .61 2.5 3.31 3.31 0 0 1-1.31 1.98z"/>
  <path fill="#fff" d="M412.42 118.76a8.57 8.57 0 0 1-17.14 0c0-4.73 8.57-32.67 8.57-32.67s8.57 27.92 8.57 32.67z"/>
  <rect width="33.2" height="8.1" x="225.69" y="110.58" fill="#fff" rx="4.05" ry="4.05" transform="rotate(45 242.519 114.365)"/>
  <rect width="33.2" height="8.1" x="225.69" y="110.58" fill="#fff" rx="4.05" ry="4.05" transform="rotate(45 242.519 114.365)"/>
  <rect width="33.2" height="8.1" x="225.69" y="110.58" fill="#fff" rx="4.05" ry="4.05" transform="rotate(135 242.282 114.48)"/>
  <rect width="33.2" height="8.1" x="225.69" y="110.58" fill="#fff" rx="4.05" ry="4.05" transform="rotate(135 242.282 114.48)"/>
</svg>
